<?xml version="1.0" encoding="UTF-8" standalone="no"?>
<svg
   xmlns:dc="http://purl.org/dc/elements/1.1/"
   xmlns:cc="http://creativecommons.org/ns#"
   xmlns:rdf="http://www.w3.org/1999/02/22-rdf-syntax-ns#"
   xmlns:svg="http://www.w3.org/2000/svg"
   xmlns="http://www.w3.org/2000/svg"
   xmlns:sodipodi="http://sodipodi.sourceforge.net/DTD/sodipodi-0.dtd"
   xmlns:inkscape="http://www.inkscape.org/namespaces/inkscape"
   version="1.1"
   id="svg2"
   xml:space="preserve"
   width="2633.3333"
   height="3038.6667"
   viewBox="0 0 2633.3333 3038.6667"
   sodipodi:docname="vecteezy_potted-plant-isolated_.eps"><metadata
     id="metadata8"><rdf:RDF><cc:Work
         rdf:about=""><dc:format>image/svg+xml</dc:format><dc:type
           rdf:resource="http://purl.org/dc/dcmitype/StillImage" /></cc:Work></rdf:RDF></metadata><defs
     id="defs6" /><sodipodi:namedview
     pagecolor="#ffffff"
     bordercolor="#666666"
     borderopacity="1"
     objecttolerance="10"
     gridtolerance="10"
     guidetolerance="10"
     inkscape:pageopacity="0"
     inkscape:pageshadow="2"
     inkscape:window-width="640"
     inkscape:window-height="480"
     id="namedview4" /><g
     id="g10"
     inkscape:groupmode="layer"
     inkscape:label="ink_ext_XXXXXX"
     transform="matrix(1.3333333,0,0,-1.3333333,0,3038.6667)"><g
       id="g12"
       transform="scale(0.1)"><path
         d="m 5138.2,9066.7 c 271.37,-124 689.93,-221.9 1195.08,-303.8 252.93,-40.6 528.44,-75.7 820.47,-107.1 292.15,-30.8 601.09,-55.1 920.94,-76.7 319.84,-21.4 650.94,-34.5 987.38,-46 336.48,-10.8 678.56,-15.7 1020.63,-14.8 342,-0.7 684,4 1020.5,14.9 336.5,11.7 667.6,24.7 987.4,46.1 639.8,41.3 1235.5,102.8 1741.4,183.7 169.7,27.6 329.3,57 477.1,88.4 48.2,289.2 73.6,586.1 73.6,888.9 0,479.8 -276.6,1352.3 -330.2,1343.8 -792.7,-243 -2273.5,-406.5 -3969.8,-406.5 -2269.54,0 -4153.44,292.6 -4519.26,676.8 l -1.25,1.4 c -7.58,8 -14.53,16.1 -20.74,24.2 l -1.96,2.5 c -12.54,16.7 -22.26,33.6 -28.98,50.7 l -2.27,6.5 c -2.22,6.3 -4.06,12.6 -5.43,19 l -1.52,7 c -1.41,8.4 -2.38,16.7 -2.38,25.1 -502.19,-817.5 -792.19,-1779.4 -792.19,-2809.2 0,-2423.4 1603.51,-4471.8 3807.26,-5143.2 -1086.05,331.2 -2026.13,997.1 -2700.54,1877.3 892.97,-660.4 1997.38,-1051.4 3193.32,-1051.4 1604.14,0 3044.04,702.9 4028.94,1817.2 -315,-47.4 -651.4,-86.9 -1002.4,-117.5 -310.6,-26.4 -632,-49.4 -958.9,-61.7 -327,-13.1 -659.4,-20.2 -991.7,-20.9 -332.39,0.9 -664.77,7.9 -991.72,21 -327,12.5 -648.36,35.3 -958.95,61.7 -310.62,26.3 -610.12,61.5 -893.2,101.5 -283.17,39.6 -549.61,86.8 -793.87,139 -244.37,51.5 -466.25,110.3 -659.37,173.9 -193.05,63.5 -358.09,130.8 -485.86,202.9 -128.25,70.6 -217.07,150.9 -255.63,220.4 -39.57,69.8 -29.14,115.7 -31.33,114.4 2,1.3 -4.61,-45.3 38.71,-109.9 41.84,-65 134.26,-134.2 262.78,-197.4 258.12,-128 661.25,-229.3 1148.12,-314 243.83,-42 509.69,-78.2 791.57,-110.6 281.95,-32 580.23,-57.2 889.1,-79.4 308.9,-22 628.71,-35.8 953.71,-47.5 325.04,-11.2 655.47,-16.3 985.94,-15.4 330.4,-0.7 660.8,4.2 985.9,15.4 325,12.1 644.8,25.6 953.7,47.7 308.8,22.2 607.1,47.5 889.1,79.4 80.7,9.2 159.6,18.9 237.5,28.9 575.4,694.7 979.3,1536.5 1147,2460.7 -139.1,-36.3 -288.9,-70.4 -447.5,-101.9 -506.5,-102.1 -1104.6,-181.3 -1747.3,-234.1 -321.5,-25.7 -654.1,-48.2 -992.4,-60 -338.2,-12.7 -682.2,-19.7 -1026,-20.5 -343.91,1 -687.74,7.8 -1026.06,20.6 -338.32,12.1 -670.86,34.4 -992.34,60.1 -321.49,25.5 -631.53,59.9 -924.73,98.8 -293.24,38.4 -569.34,84.5 -822.62,135.3 -506.44,100.6 -922.42,227.7 -1192.42,366.3 -134.41,69.3 -230.43,146.9 -273.87,216.7 -44.76,70.4 -33.59,118.7 -35.97,117.2 2.15,1.5 -5.08,-47.4 43.12,-112.3 46.45,-65.1 145.71,-131.8 280.39,-193.6"
         style="fill:#cfcece;fill-opacity:1;fill-rule:nonzero;stroke:none"
         id="path14" /><path
         d="m 10145.2,11490.6 c 1.1,30.5 2.3,60.8 3.5,91.2 -4.7,-4.1 -9.3,-8.2 -14,-12.2 1,-26.2 1.9,-52.6 2.8,-79 2.5,0 5.2,0 7.7,0"
         style="fill:#abaaaa;fill-opacity:1;fill-rule:nonzero;stroke:none"
         id="path16" /><path
         d="m 14666.4,11490.8 c 0,172.2 -302.6,331.9 -817.3,463.3 101.1,-243.2 181.1,-482.6 250.5,-693.8 -433.9,419.6 -1626.2,226.7 -2324.5,304.8 -448.7,93.9 -898.6,216.6 -1200.5,430.4 -42.5,-46.5 -85.7,-91.8 -129.6,-136 -10.8,-123.7 -19.3,-247.4 -25.8,-370.9 1554.2,-20 2892.8,-177.6 3632.5,-404.4 0.2,0.1 0.5,-0.1 0.8,-0.1 53.6,8.5 330.2,-864 330.2,-1343.8 0,-302.8 -25.4,-599.7 -73.6,-888.9 292.3,62.3 537.8,133.1 718,215.4 134.7,61.8 233.9,128.4 280.4,193.6 48.2,64.8 41,113.7 43.2,112.2 -2.5,1.5 8.8,-46.8 -36,-117.2 -43.4,-69.8 -139.4,-147.5 -273.9,-216.7 -185.4,-95.3 -439.7,-185.1 -744.9,-264.6 -167.7,-924.2 -571.6,-1766 -1147,-2460.7 194.3,24.8 380,51.8 554,81.6 486.9,84.8 890,186 1148.1,314.1 128.6,63 221,132.3 262.9,197.2 43.2,64.7 36.7,111.2 38.7,109.9 -2.2,1.2 8.2,-44.6 -31.3,-114.4 -38.6,-69.5 -127.4,-149.8 -255.7,-220.4 -127.7,-72.3 -292.7,-139.6 -485.8,-203.1 -193.1,-63.7 -415,-122.4 -659.4,-173.8 -212.3,-45.6 -442.4,-86.6 -684.7,-123 -984.9,-1114.3 -2424.8,-1817.2 -4028.94,-1817.2 -1195.94,0 -2300.35,391 -3193.32,1051.4 674.41,-880.2 1614.49,-1546.1 2700.54,-1877.3 5.82,-1.8 11.68,-3.4 17.5,-5.2 40.82,-12.3 81.8,-24.1 123.05,-35.4 10.43,-2.9 20.82,-5.7 31.33,-8.5 37.5,-10.1 75.19,-19.7 113.05,-29 11.52,-2.8 23.08,-5.7 34.68,-8.5 38.87,-9.3 77.93,-18 117.19,-26.4 9.65,-2.1 19.22,-4.3 28.95,-6.3 97.93,-20.4 196.83,-38.3 296.64,-53.2 10.97,-1.7 21.95,-3.1 32.93,-4.7 37.81,-5.5 75.7,-10.6 113.75,-15.2 16.68,-2.1 33.4,-3.9 50.11,-5.7 32.86,-3.8 65.82,-7.3 98.87,-10.4 18.32,-1.7 36.72,-3.3 55.08,-4.9 32.19,-2.7 64.45,-5 96.8,-7.2 18.39,-1.2 36.79,-2.4 55.31,-3.5 34.33,-1.9 68.83,-3.3 103.36,-4.6 16.09,-0.6 32.11,-1.3 48.16,-1.8 50.51,-1.5 101.06,-2.3 151.96,-2.3 2969,0 5375.9,2406.9 5375.9,5376 0,1029.8 -290,1991.7 -792.2,2809.2"
         style="fill:#abaaaa;fill-opacity:1;fill-rule:nonzero;stroke:none"
         id="path18" /><path
         d="m 9821.02,11489.4 c 17.61,234.7 -50.94,517.8 -149.11,811.3 -2339.02,-36.9 -4173,-385.3 -4173,-809.9 0,-8.4 0.97,-16.7 2.38,-25.1 l 1.52,-7 c 1.37,-6.4 3.21,-12.7 5.43,-19 l 2.27,-6.5 c 6.72,-17.1 16.44,-34 28.98,-50.7 l 1.96,-2.5 c 6.21,-8.1 13.16,-16.2 20.74,-24.2 l 1.25,-1.4 c 92.77,-97 282.42,-188 550.19,-270.2 751.6,230.4 2121.33,389.3 3707.39,405.2"
         style="fill:#abaaaa;fill-opacity:1;fill-rule:nonzero;stroke:none"
         id="path20" /><path
         d="m 14052.5,11084.1 c -0.3,0 -0.6,0.2 -0.8,0.1 -739.7,226.8 -2078.3,384.4 -3632.5,404.4 -2.5,-47.4 -5.1,-94.8 -6.9,-142.1 944.4,-22.2 1750.4,-122.1 2207.7,-262.3 34.2,10.5 66.2,21.2 96.4,32.1 l 0.2,-0.3 c -490.3,-177 -1516.5,-298.9 -2703.1,-298.9 -1490.45,0 -2727.68,192.3 -2967.91,444.5 60.93,-63.6 185.46,-123.4 361.32,-177.4 486.64,149.2 1367.97,252.8 2390.98,265.6 11.6,44.3 19.45,90.7 23.13,139.6 -1586.06,-15.9 -2955.79,-174.8 -3707.39,-405.2 -267.77,82.2 -457.42,173.2 -550.19,270.2 365.82,-384.2 2249.72,-676.8 4519.26,-676.8 1696.3,0 3177.1,163.5 3969.8,406.5"
         style="fill:#727070;fill-opacity:1;fill-rule:nonzero;stroke:none"
         id="path22" /><path
         d="m 10145.2,11490.6 c -2.5,0 -5.2,0 -7.7,0 1.5,-43.3 2.5,-86.9 3.7,-130.4 1.2,43.5 2.5,87.1 4,130.4"
         style="fill:#727070;fill-opacity:1;fill-rule:nonzero;stroke:none"
         id="path24" /><path
         d="m 15350.7,9372.6 c -2.2,1.5 5,-47.4 -43.2,-112.2 -46.5,-65.2 -145.7,-131.8 -280.4,-193.6 -180.2,-82.3 -425.7,-153.1 -718,-215.4 -147.8,-31.4 -307.4,-60.8 -477.1,-88.4 -505.9,-80.9 -1101.6,-142.4 -1741.4,-183.7 -319.8,-21.4 -650.9,-34.4 -987.4,-46.1 -336.5,-10.9 -678.5,-15.6 -1020.5,-14.9 -342.07,-0.9 -684.15,4 -1020.63,14.8 -336.44,11.5 -667.54,24.6 -987.38,46 -319.85,21.6 -628.79,45.9 -920.94,76.7 -292.03,31.4 -567.54,66.5 -820.47,107.1 -505.15,81.9 -923.71,179.8 -1195.08,303.8 -134.68,61.8 -233.94,128.5 -280.39,193.6 -48.2,64.9 -40.97,113.8 -43.12,112.3 2.38,1.5 -8.79,-46.8 35.97,-117.2 43.44,-69.8 139.46,-147.4 273.87,-216.7 270,-138.6 685.98,-265.7 1192.42,-366.3 253.28,-50.8 529.38,-96.9 822.62,-135.3 293.2,-38.9 603.24,-73.3 924.73,-98.8 321.48,-25.7 654.02,-48 992.34,-60.1 338.32,-12.8 682.15,-19.6 1026.06,-20.6 343.8,0.8 687.8,7.8 1026,20.5 338.3,11.8 670.9,34.3 992.4,60 642.7,52.8 1240.8,132 1747.3,234.1 158.6,31.5 308.4,65.6 447.5,101.9 305.2,79.5 559.5,169.3 744.9,264.6 134.5,69.2 230.5,146.9 273.9,216.7 44.8,70.4 33.5,118.7 36,117.2"
         style="fill:#727070;fill-opacity:1;fill-rule:nonzero;stroke:none"
         id="path26" /><path
         d="m 15113.9,6906.3 c -41.9,-64.9 -134.3,-134.2 -262.9,-197.2 -258.1,-128.1 -661.2,-229.3 -1148.1,-314.1 -174,-29.8 -359.7,-56.8 -554,-81.6 -77.9,-10 -156.8,-19.7 -237.5,-28.9 -282,-31.9 -580.3,-57.2 -889.1,-79.4 -308.9,-22.1 -628.7,-35.6 -953.7,-47.7 -325.1,-11.2 -655.5,-16.1 -985.9,-15.4 -330.47,-0.9 -660.9,4.2 -985.94,15.4 -325,11.7 -644.81,25.5 -953.71,47.5 -308.87,22.2 -607.15,47.4 -889.1,79.4 -281.88,32.4 -547.74,68.6 -791.57,110.6 -486.87,84.7 -890,186 -1148.12,314 -128.52,63.2 -220.94,132.4 -262.78,197.4 -43.32,64.6 -36.71,111.2 -38.71,109.9 2.19,1.3 -8.24,-44.6 31.33,-114.4 38.56,-69.5 127.38,-149.8 255.63,-220.4 127.77,-72.1 292.81,-139.4 485.86,-202.9 193.12,-63.6 415,-122.4 659.37,-173.9 244.26,-52.2 510.7,-99.4 793.87,-139 283.08,-40 582.58,-75.2 893.2,-101.5 310.59,-26.4 631.95,-49.2 958.95,-61.7 326.95,-13.1 659.33,-20.1 991.72,-21 332.3,0.7 664.7,7.8 991.7,20.9 326.9,12.3 648.3,35.3 958.9,61.7 351,30.6 687.4,70.1 1002.4,117.5 242.3,36.4 472.4,77.4 684.7,123 244.4,51.4 466.3,110.1 659.4,173.8 193.1,63.5 358.1,130.8 485.8,203.1 128.3,70.6 217.1,150.9 255.7,220.4 39.5,69.8 29.1,115.6 31.3,114.4 -2,1.3 4.5,-45.2 -38.7,-109.9"
         style="fill:#727070;fill-opacity:1;fill-rule:nonzero;stroke:none"
         id="path28" /><path
         d="m 13124.7,12172.7 c 15.6,8.1 175.5,92.5 175.6,92.1 -138.4,226.9 -469.2,107 -655.5,227.9 111.7,74.7 322.1,66.6 375.9,192.1 -333.6,157.3 -674.9,132.3 -1032.7,137.4 139.3,158.9 343.3,175.3 496.4,302.1 -177.2,126.6 -562.2,39.3 -763.2,-15.6 -98.2,-26.8 -253.9,-139.9 -315.5,-11 -29.2,61 84,152.2 131.9,176.9 -69.4,68 -175.6,59 -282.6,20.1 -18.7,-124.9 -49.5,-244.7 -89.9,-360 102.9,2.6 211.2,-5.7 321.5,-23.1 114.8,-17.2 231.6,-45.5 347.9,-81.4 116.6,-35.1 232.1,-79.6 344.8,-130 112.8,-50.5 221.4,-109.4 326.5,-170.2 104.6,-61.6 204.8,-126.8 298.8,-193.8 94.7,-66.2 181.5,-136.5 262.7,-204.3 39.8,-34.8 78.4,-68.7 115.9,-101.5 21.8,-20.3 42.2,-39.3 63.1,-58.8 139.7,-65.7 272.9,-128.2 444.1,-162.8 -123.8,179.1 -370.5,289.7 -565.7,363.9"
         style="fill:#82b666;fill-opacity:1;fill-rule:nonzero;stroke:none"
         id="path30" /><path
         d="m 11403.8,12876.8 c -85.8,11.6 -169.8,19 -250.5,18.7 -0.6,0 -1.2,-0.1 -1.9,-0.1 -19.6,-52.6 -41.7,-104.1 -65.1,-154.9 217.6,-119.4 436.7,-492.4 570.3,-653.5 -94.2,245.3 -270.7,523.2 -252.8,789.8"
         style="fill:#82b666;fill-opacity:1;fill-rule:nonzero;stroke:none"
         id="path32" /><path
         d="m 10851.8,12338.6 c 36.8,-34.5 76.6,-53.5 122.5,-42.1 61.6,15.3 44.6,149.7 25.8,276.2 -45.4,-80.7 -95.1,-158.7 -148.3,-234.1"
         style="fill:#82b666;fill-opacity:1;fill-rule:nonzero;stroke:none"
         id="path34" /><path
         d="m 13042.6,12101.9 c -82.4,64.8 -171,131 -264.7,196.3 -93.6,65.5 -193.3,128.8 -297.2,188.6 -104.3,58.9 -211.9,116.1 -323.4,164.6 -110.5,50.5 -223.6,95.6 -337.8,131.1 -113.7,36.4 -228,65.4 -340.3,83.2 -14.9,2.4 -29.5,4.3 -44.2,6.5 230,-247.5 402,-542.7 637.2,-783.9 -48.4,193.2 -250.7,350.3 -270.2,539.7 326,-69.5 528.3,-582.7 748.5,-808.6 -56.6,205.4 -211.6,460.9 -240.9,646.2 305.3,-175.2 451.4,-567.2 748.3,-722.9 -14.7,116.1 -108.9,242.4 -191.8,338.9 61.5,-14.8 130.5,-68.1 196.4,-128.2 -22.5,34.1 -36,71.7 -33,115 39.2,-15.7 76.2,-32.1 112.5,-48.5 -32.5,26.7 -65.3,53.8 -99.4,82"
         style="fill:#82b666;fill-opacity:1;fill-rule:nonzero;stroke:none"
         id="path36" /><path
         d="m 7715.04,15770.6 c -186.17,-10.7 -590.7,-62.8 -612.54,-288.2 57.77,13 217.58,16.2 236.17,-55.8 39.3,-152.1 -171.83,-166.9 -273.47,-213.8 -208.17,-96 -594.15,-294.9 -653.75,-526.9 218.59,1.4 401.99,131.9 631.75,96.7 -297.73,-257.4 -602.85,-477.8 -772.54,-846.3 134.14,-67.7 305.47,88 452.47,104.1 -71.37,-233.6 -434.81,-366.6 -390.9,-655.7 -0.04,0.5 194.25,42.4 213.16,46.7 -111.91,-200.6 -241.44,-468.3 -219.02,-706.8 120.97,151.9 189.06,300.3 261.01,456.2 3.64,29.2 7.31,58.8 11.1,89.1 8.4,54 17.07,109.9 25.97,167.4 10.94,57.1 22.15,115.8 33.68,175.7 13.63,59.5 26.48,120.7 43.35,181.9 31.76,123 70.2,248.6 114.65,374.4 45.55,125.4 95.32,251.8 154.69,374 59.1,122.2 124.84,241.4 198.05,353.3 72.42,112.4 150.58,218.9 235.08,314.5 83.63,96.2 172.1,183.1 264.18,255.4 91.52,72.8 183.35,135.4 274.33,181.9 44.14,25.6 90.04,43.2 132.15,62.8 43.83,15.5 84.77,32 124.69,42.9 79.49,23.2 150.47,36.6 209.18,43.8 12.18,1.2 23.47,2.3 34.49,3.4 l 9.8,48.9 c -236.21,26.9 -496.87,-65.9 -737.73,-79.6"
         style="fill:#82b666;fill-opacity:1;fill-rule:nonzero;stroke:none"
         id="path38" /><path
         d="m 7473.75,15219.7 c -11.52,-13 -23.12,-25.7 -34.61,-39 -82.03,-94.4 -157.93,-199.8 -228.12,-311 -71.06,-110.8 -134.57,-228.8 -192,-349.6 -59.53,-119.9 -109.8,-244.2 -155.93,-367.7 -45.08,-124 -84.18,-248 -116.76,-369.4 -32.66,-121.4 -60.24,-239.9 -83.63,-352.9 -9.15,-50 -17.97,-98.3 -26.68,-145.7 19.8,41.5 40.31,83.4 63.32,126.5 33.16,-34.3 48.39,-75.6 53.59,-120.2 12.93,97.2 33.36,191 74.65,246.9 -1.41,-139.9 8.4,-312.9 78.24,-421.1 139.92,341.2 -14.34,774.7 118.83,1138.2 106.37,-176.8 156.52,-501.6 254.26,-714.6 25.62,346 -167,921.4 58.39,1210.5 117.54,-173.3 58.33,-448.8 154.15,-645.6 27.57,370.7 -36.96,742.3 -17.7,1114.7"
         style="fill:#82b666;fill-opacity:1;fill-rule:nonzero;stroke:none"
         id="path40" /><path
         d="m 8205.39,15735.1 c -38.75,-12.4 -78.4,-30.6 -120.62,-47.6 -40.55,-21.1 -85.24,-39 -127.86,-65.6 -87.89,-47.9 -176.21,-111.9 -263.9,-185.5 -68.24,-56.7 -133.83,-122.3 -197.93,-192.8 204.96,-211.7 252.93,-571.8 347.42,-845.8 -1.68,267 -108.67,855.5 79.22,1057.9 88.55,-69.3 242.89,-449.6 347.15,-398.7 199.06,97.4 -83.13,578.5 157.34,660.5 l 14.96,74.8 c -10.08,-1.5 -20.19,-3 -31.17,-4.7 -57.85,-9.8 -127.42,-26.2 -204.61,-52.5"
         style="fill:#82b666;fill-opacity:1;fill-rule:nonzero;stroke:none"
         id="path42" /><path
         d="m 5488.67,16502.6 c 87.97,74.8 182.31,148.2 281.25,218.5 99.57,69.5 202.78,137.4 310.9,197.3 107.97,59.8 219.34,113.9 332.5,158.9 112.77,45.6 226.72,83.8 339.73,110.6 112.65,27.7 224.02,45.8 330.43,51.2 106.21,6.1 207.34,4.4 299.41,-8.8 46.25,-4.2 89.65,-15.1 131.21,-22.7 40.7,-11.5 79.81,-20.8 115.2,-33.7 71.17,-24.5 130.9,-52 178.32,-77.4 9.68,-5.5 18.63,-10.6 27.46,-15.6 l 32.58,30.9 c -161.49,143.7 -403.83,211.2 -590.04,327 -143.91,89.6 -471.92,262.6 -606.17,106.5 49.76,-20.6 170.23,-101.8 146.36,-165.1 -50.39,-133.6 -215.11,-34.1 -315.23,-15.8 -204.96,37.6 -595.98,91.9 -761.76,-49.3 163.24,-113.4 367.93,-112.4 520.2,-258.9 -356.06,-35.4 -698.21,-39.6 -1017.19,-224.6 64.22,-120.5 273.16,-94.4 390.78,-159.4 -175.31,-136.3 -515.16,-45 -633.71,-282.8 0.12,0.3 166.52,-70.2 182.77,-76.9 -188.12,-90.5 -424.57,-221.6 -532.73,-410.6 167.61,49.1 295.04,122.6 428.67,200 19.14,21.1 37.85,41.8 57.85,63.9 34.49,35.8 70.16,72.8 106.84,111 75.11,74.3 155.7,151.7 244.37,225.8"
         style="fill:#82b666;fill-opacity:1;fill-rule:nonzero;stroke:none"
         id="path44" /><path
         d="m 6807.85,17153.1 c -14.49,-3.4 -28.94,-6.7 -43.51,-10.3 -110.36,-27.3 -221.8,-65.9 -332.07,-111.9 -110.71,-45 -219.61,-99.6 -325.39,-159.3 -213.4,-116.8 -412.5,-258.9 -588.4,-404.6 -87.82,-73.1 -170.39,-146.5 -247.03,-218.2 -31.57,-30.9 -62,-60.6 -92,-90 34.73,19.5 70.24,38.9 107.97,57.9 6.68,-42.8 -3.67,-81.5 -23.12,-117.4 60.5,65.4 124.8,124.5 184.76,144.4 -74.33,-103.2 -157.58,-236.9 -162.34,-353.9 282.62,180.3 394.92,583.3 684.22,783.8 -13.52,-187.1 -146.25,-454.8 -185.16,-664.3 200.24,243.8 358.24,772.3 677.19,869.2 -3.44,-190.4 -191.6,-364.1 -223.48,-560.6 213.87,260.3 360.2,569 568.36,835.2"
         style="fill:#82b666;fill-opacity:1;fill-rule:nonzero;stroke:none"
         id="path46" /><path
         d="m 7315.7,16618.6 c 198.95,-31.9 241.06,473.5 462.7,408.5 l 50,47.4 c -8.24,4.1 -16.52,8.2 -25.51,12.7 -48.12,22.9 -108.44,47 -179.57,67.7 -35.35,10.9 -74.3,18.1 -114.61,27.4 -41.17,5.5 -83.71,15.5 -129.22,18 -90.39,10.3 -189.41,8.8 -293.04,-0.2 -80.36,-6.5 -163.36,-21 -247.86,-39.9 40.43,-264.1 -111.83,-556 -184.88,-808.4 138.52,199.3 367.11,692.7 612.77,744.9 29.5,-97.9 -54.92,-461.5 49.22,-478.1"
         style="fill:#82b666;fill-opacity:1;fill-rule:nonzero;stroke:none"
         id="path48" /><path
         d="m 9347.62,17190.2 c -189.46,19.6 -346.53,221.8 -539.65,270.2 241.21,-235.2 536.41,-407.2 783.94,-637.1 -2.18,14.7 -4.14,29.3 -6.48,44.2 -17.89,112.2 -46.88,226.6 -83.28,340.3 -35.55,114.1 -80.67,227.3 -131.21,337.8 -48.52,111.5 -105.63,219.1 -164.57,323.4 -59.85,103.8 -123.17,203.5 -188.67,297.1 -65.36,93.7 -131.53,182.3 -196.41,264.7 -28.13,34.1 -55.24,66.9 -81.95,99.4 16.44,-36.4 32.77,-73.4 48.51,-112.6 -43.2,-3 -80.9,10.6 -114.96,33 60.04,-65.8 113.4,-134.9 128.2,-196.3 -96.48,82.8 -222.77,177 -338.9,191.7 155.74,-296.9 547.77,-442.9 722.97,-748.1 -185.28,29.3 -440.78,184.2 -646.21,240.7 225.93,-220.2 739.14,-422.4 808.67,-748.4"
         style="fill:#82b666;fill-opacity:1;fill-rule:nonzero;stroke:none"
         id="path50" /><path
         d="m 9994.34,16925.9 c -24.81,-47.8 -115.94,-161 -176.92,-131.9 -128.83,61.6 -15.78,217.3 10.98,315.4 54.84,201.2 142.07,586.2 15.39,763.3 -126.76,-153 -143.13,-357.1 -302.03,-496.4 -5.08,357.8 19.88,699.1 -137.46,1032.6 -125.59,-53.7 -117.31,-264.2 -192.11,-375.8 -120.94,186.2 -0.98,517.1 -227.93,655.4 0.31,-0.2 -84.06,-159.9 -92.11,-175.6 -74.22,195.1 -184.85,441.9 -363.99,565.6 34.65,-171.2 97.19,-304.4 162.93,-444.1 19.46,-20.9 38.48,-41.2 58.79,-63.1 32.74,-37.4 66.64,-76 101.49,-115.8 67.73,-81.2 138.04,-168 204.29,-262.6 67.11,-94.1 132.23,-194.3 193.91,-298.9 60.74,-105 119.73,-213.6 170.2,-326.4 50.46,-112.7 94.96,-228.3 130.11,-344.8 35.9,-116.2 64.3,-233 81.45,-347.9 18.05,-114.6 26.64,-227.1 22.97,-333.6 -3.01,-106.3 -13.21,-207 -34.18,-297.6 -8.05,-45.7 -22.66,-88.1 -33.75,-128.8 -14.96,-39.6 -27.46,-77.7 -43.32,-111.9 -30.47,-68.9 -62.85,-126.1 -92.23,-171.2 -6.33,-9.1 -12.19,-17.7 -17.93,-26 l 28.09,-35.1 c 156.79,148.7 244.61,384.5 375.82,560.3 101.48,135.8 301.6,447.9 157.54,594.9"
         style="fill:#82b666;fill-opacity:1;fill-rule:nonzero;stroke:none"
         id="path52" /><path
         d="m 9524.57,16010.6 c 13.91,34.2 24.38,72.4 37.07,111.8 8.95,40.6 22.58,82.1 28.91,127.3 17.85,89.1 24.84,187.9 24.68,291.9 0.32,80.7 -7.1,164.6 -18.75,250.4 -266.56,-17.9 -544.57,158.6 -789.84,252.8 186.76,-154.9 659.1,-424.6 690.16,-673.7 -100.04,-21.1 -455.12,93.8 -480.51,-8.6 -48.59,-195.5 451.33,-280.3 367.73,-495.6 l 43.09,-53.9 c 4.8,7.9 9.61,15.8 14.8,24.3 26.92,46.1 56.06,104.1 82.66,173.3"
         style="fill:#82b666;fill-opacity:1;fill-rule:nonzero;stroke:none"
         id="path54" /><path
         d="m 14105.1,16260.6 c -82.5,64.8 -171,131 -264.7,196.3 -187.6,130.3 -398.1,255 -620.6,353.2 -110.5,50.5 -223.7,95.6 -337.8,131.2 -113.8,36.3 -228.1,65.3 -340.3,83.1 -14.9,2.4 -29.6,4.4 -44.3,6.5 229.9,-247.5 402,-542.6 637.2,-783.8 -48.3,193.1 -250.6,350.2 -270.1,539.7 325.9,-69.6 528.2,-582.7 748.5,-808.6 -56.6,205.3 -211.6,460.8 -240.9,646.1 305.3,-175.2 451.3,-567.2 748.3,-722.9 -14.8,116.2 -109,242.4 -191.8,338.9 61.4,-14.7 130.4,-68.1 196.3,-128.1 -22.4,34 -36,71.7 -33,114.9 39.2,-15.7 76.2,-32 112.6,-48.5 -32.5,26.8 -65.3,53.8 -99.4,82"
         style="fill:#82b666;fill-opacity:1;fill-rule:nonzero;stroke:none"
         id="path56" /><path
         d="m 14187.1,16331.4 c 15.7,8.1 175.5,92.5 175.7,92.2 -138.4,226.9 -469.3,106.9 -655.5,227.8 111.6,74.8 322.1,66.6 375.8,192.2 -333.6,157.2 -674.8,132.2 -1032.6,137.3 139.2,158.9 343.3,175.3 496.3,302.1 -177.2,126.6 -562.1,39.3 -763.2,-15.5 -98.2,-26.8 -253.8,-139.9 -315.5,-11.1 -29.1,61 84.1,152.2 131.9,177 -147,144 -459.1,-56.1 -594.9,-157.7 -175.7,-131.1 -411.5,-219.1 -560.2,-375.9 l 35.1,-28 c 8.4,5.7 16.8,11.6 26.1,17.9 45,29.4 102.2,61.7 171,92.2 34.2,15.9 72.4,28.4 112,43.4 40.7,11.1 83,25.7 128.8,33.8 90.6,20.9 191.2,31.2 297.6,34.2 106.5,3.6 219,-4.9 333.5,-22.9 114.9,-17.2 231.7,-45.5 348,-81.5 116.5,-35.1 232.1,-79.5 344.8,-130 112.8,-50.4 221.4,-109.4 326.4,-170.1 104.6,-61.7 204.9,-126.9 298.9,-193.9 94.7,-66.2 181.5,-136.5 262.7,-204.3 39.7,-34.8 78.4,-68.7 115.8,-101.5 21.9,-20.3 42.3,-39.3 63.1,-58.7 139.7,-65.7 272.9,-128.2 444.2,-162.9 -123.9,179.2 -370.6,289.8 -565.8,363.9"
         style="fill:#82b666;fill-opacity:1;fill-rule:nonzero;stroke:none"
         id="path58" /><path
         d="m 12215.8,17054.2 c -104,0.2 -202.8,-6.8 -292,-24.7 -45.1,-6.4 -86.7,-20 -127.2,-28.9 -39.4,-12.7 -77.5,-23.2 -111.9,-37.1 -69.1,-26.6 -127.1,-55.8 -173.1,-82.7 -8.7,-5.2 -16.5,-10 -24.4,-14.8 l 53.8,-43.1 c 215.3,83.6 300.3,-416.3 495.8,-367.6 102.4,25.3 -12.6,380.4 8.4,480.5 249.2,-31.1 519,-503.4 673.8,-690.1 -94.2,245.3 -270.6,523.2 -252.8,789.9 -85.8,11.6 -169.8,19 -250.4,18.6"
         style="fill:#82b666;fill-opacity:1;fill-rule:nonzero;stroke:none"
         id="path60" /><path
         d="m 13338.6,14149.3 c -187.7,130.2 -398.1,254.9 -620.6,353.1 -110.5,50.5 -223.7,95.6 -337.8,131.2 -113.8,36.3 -228.1,65.3 -340.3,83.2 -14.9,2.3 -29.5,4.3 -44.3,6.4 229.9,-247.5 402,-542.6 637.2,-783.8 -48.3,193.1 -250.7,350.2 -270.2,539.7 326,-69.6 528.3,-582.7 748.6,-808.6 -56.6,205.4 -211.6,460.8 -240.9,646.1 305.3,-175.1 451.3,-567.2 748.3,-722.8 -14.7,116.1 -109,242.4 -191.8,338.9 61.4,-14.8 130.4,-68.2 196.4,-128.3 -22.5,34.1 -36.1,71.8 -33.1,115 39.2,-15.7 76.2,-32.1 112.6,-48.5 -32.5,26.8 -65.3,53.9 -99.4,82 -82.4,64.8 -171,131 -264.7,196.4"
         style="fill:#82b666;fill-opacity:1;fill-rule:nonzero;stroke:none"
         id="path62" /><path
         d="m 13685.3,14023.8 c 15.7,8 175.5,92.4 175.7,92.1 -138.3,226.9 -469.3,106.9 -655.5,227.8 111.6,74.8 322,66.6 375.8,192.2 -333.5,157.3 -674.8,132.2 -1032.6,137.3 139.2,159 343.3,175.3 496.3,302.1 -177.1,126.6 -562.1,39.4 -763.2,-15.5 -98.2,-26.8 -253.9,-139.9 -315.4,-11 -29.2,61 84,152.1 131.8,176.9 -147,144.1 -459.1,-56.1 -594.8,-157.6 -164.5,-122.7 -380.5,-208.3 -529.6,-347.2 8.7,-14 17.1,-28.1 25.4,-42.4 1.8,1.2 3.3,2.3 5.1,3.5 45.1,29.4 102.3,61.8 171.1,92.3 34.1,15.8 72.3,28.4 111.9,43.3 40.7,11.1 83.1,25.7 128.8,33.8 90.6,21 191.2,31.2 297.6,34.2 106.5,3.7 219,-4.9 333.6,-22.9 114.8,-17.1 231.6,-45.5 347.9,-81.4 116.5,-35.1 232.1,-79.6 344.8,-130.1 112.8,-50.4 221.4,-109.4 326.5,-170.1 104.6,-61.7 204.8,-126.8 298.8,-193.9 94.6,-66.2 181.5,-136.5 262.7,-204.2 39.7,-34.9 78.4,-68.7 115.8,-101.5 21.9,-20.4 42.3,-39.3 63.2,-58.8 139.7,-65.8 272.9,-128.3 444.1,-162.9 -123.9,179.2 -370.6,289.8 -565.8,364"
         style="fill:#82b666;fill-opacity:1;fill-rule:nonzero;stroke:none"
         id="path64" /><path
         d="m 11535.1,14147.6 c 102.3,25.3 -12.7,380.5 8.3,480.5 249.2,-31 519,-503.3 673.8,-690.1 -94.2,245.3 -270.6,523.3 -252.8,789.8 -85.8,11.6 -169.7,19.1 -250.4,18.7 -104,0.2 -202.8,-6.8 -292,-24.7 -45.1,-6.3 -86.6,-20 -127.2,-28.9 -39.4,-12.7 -77.5,-23.2 -111.8,-37.1 -69.2,-26.6 -127.2,-55.8 -173.3,-82.6 -1.9,-1.3 -3.6,-2.3 -5.6,-3.5 9.2,-15.9 18.4,-31.7 27.2,-48.1 l 8,-6.4 c 215.2,83.6 300.1,-416.3 495.8,-367.6"
         style="fill:#82b666;fill-opacity:1;fill-rule:nonzero;stroke:none"
         id="path66" /><path
         d="m 10935.3,13437.9 c 55.2,210.6 -163.5,539.2 -286.5,707.5 -59.9,82.2 -221.1,187.4 -122.6,290.8 46.5,49.1 172,-24.3 212.2,-60.1 82.2,188.7 -216.1,408.9 -359.3,499.6 -185.2,117.5 -351.3,306.4 -550.9,389.5 l -13.67,-42.8 c 8.36,-5.8 16.88,-11.6 26.06,-18 43.51,-31.6 94.14,-73.5 147.18,-126.9 26.93,-26.3 52.33,-57.5 80.33,-89.2 24.9,-34.1 53.7,-68.4 77.5,-108.3 51.9,-77.1 97.3,-167.5 138,-265.8 41.4,-98.2 73.5,-206.4 97.5,-319.9 24.9,-113.4 40.1,-232.7 47.9,-354 8.8,-121.5 8.4,-245.3 1.4,-368.6 -6.9,-123.3 -23.3,-245.8 -42.6,-365.6 -20.3,-119.7 -45.5,-236.6 -74.6,-348.4 -28.2,-112 -62.9,-218.2 -97.2,-318.2 -18.5,-49.5 -36.3,-97.8 -53.6,-144.4 -11.2,-27.7 -21.7,-53.6 -32.5,-80.1 -11.6,-153.8 -22.5,-300.5 6.2,-472.8 123.2,179.5 138.6,449.5 138.4,658.3 13.1,-11.8 148.9,-131 148.7,-131.3 162.7,210.1 -67.4,476.5 -20.8,693.7 109.7,-77.7 177,-277.3 313.6,-282.8 28,367.8 -117,677.8 -239.9,1013.8 198.3,-73.4 286.3,-258.3 459.2,-356"
         style="fill:#82b666;fill-opacity:1;fill-rule:nonzero;stroke:none"
         id="path68" /><path
         d="m 10137.8,12429.6 c 13.5,39.9 27.1,80.3 41.2,122.3 31.3,100.1 61.5,206.4 89.2,317.3 27.8,110.8 51.4,226.5 70.3,344.9 17.9,118.4 32.9,239.3 38.5,360.8 7.8,121.2 9.6,243 2.1,362.3 -6.5,119.3 -20.2,236.4 -43.6,347.7 -3,14.7 -6.4,29.1 -9.6,43.7 -149.3,-303.1 -363.79,-569 -505.35,-874.9 163.2,114.1 237.85,359.1 407.95,444.9 51.1,-329.4 -356.16,-701.3 -488.73,-987.6 171.75,126.1 355.23,361.9 517.83,455.4 -54.8,-347.7 -368.97,-623.9 -408.69,-956.8 103.28,55.1 187.69,188.2 248.19,299.9 8.2,-62.6 -17.1,-146.1 -49.6,-229.1 23.8,33.1 54.1,59.2 95.5,71.8 -0.7,-42.3 -2.8,-82.7 -5.2,-122.6"
         style="fill:#82b666;fill-opacity:1;fill-rule:nonzero;stroke:none"
         id="path70" /><path
         d="m 10319,14359.3 c -19.7,84.3 -42.7,165.4 -71.8,240.7 -36.9,97.2 -78.6,187 -127.1,263.9 -22,40 -49.6,73.9 -72.4,108.6 -25.9,32.3 -49.22,64.2 -74.46,91.3 -49.57,55.1 -97.46,98.9 -139.02,132.4 -7.89,6.1 -15.2,11.8 -22.5,17.5 l -21.09,-65.8 c 154.88,-171.4 -281.92,-428.8 -166.84,-594.2 60.23,-86.6 351.01,147.3 452.01,163.3 59.7,-243.8 -285.37,-664.1 -404.63,-875.4 195.55,175.4 392.43,439.4 647.83,517.7"
         style="fill:#82b666;fill-opacity:1;fill-rule:nonzero;stroke:none"
         id="path72" /><path
         d="m 11541,16822.9 -53.8,43.1 c 7.9,4.8 15.7,9.6 24.4,14.8 46,26.9 104,56.1 173.1,82.7 34.4,13.9 72.5,24.4 111.9,37.1 40.5,8.9 82.1,22.5 127.2,28.9 89.2,17.9 188,24.9 292,24.7 80.6,0.4 164.6,-7 250.4,-18.6 -17.8,-266.7 158.6,-544.6 252.8,-789.9 -154.8,186.7 -424.6,659 -673.8,690.1 -21,-100.1 94,-455.2 -8.4,-480.5 -195.5,-48.7 -280.5,451.2 -495.8,367.6 z m -486.2,-1831.4 c -73.9,-71.2 -134.4,-146.5 -180.6,-222.9 -17.6,23.6 -35.5,46.7 -53.8,69.1 69.6,248.2 145.5,482.7 227,701.2 114.1,306 239.4,580.8 373,820 71.2,-93.3 164.8,-173.7 275.2,-243.6 -246.8,-354.8 -459.4,-731.7 -640.8,-1123.8 z m 448.6,-23.4 c 135.7,101.5 447.8,301.7 594.8,157.6 -47.8,-24.8 -161,-115.9 -131.8,-176.9 61.5,-128.9 217.2,-15.8 315.4,11 201.1,54.9 586.1,142.1 763.2,15.5 -153,-126.8 -357.1,-143.1 -496.3,-302.1 357.8,-5.1 699.1,20 1032.6,-137.3 -53.8,-125.6 -264.2,-117.4 -375.8,-192.2 186.2,-120.9 517.2,-0.9 655.5,-227.8 -0.2,0.3 -160,-84.1 -175.7,-92.1 195.2,-74.2 441.9,-184.8 565.8,-364 -171.2,34.6 -304.4,97.1 -444.1,162.9 -20.9,19.5 -41.3,38.4 -63.2,58.8 -37.4,32.8 -76.1,66.6 -115.8,101.5 -81.2,67.7 -168.1,138 -262.7,204.2 -94,67.1 -194.2,132.2 -298.8,193.9 -105.1,60.7 -213.7,119.7 -326.5,170.1 -112.7,50.5 -228.3,95 -344.8,130.1 -116.3,35.9 -233.1,64.3 -347.9,81.4 -114.6,18 -227.1,26.6 -333.6,22.9 -106.4,-3 -207,-13.2 -297.6,-34.2 -45.7,-8.1 -88.1,-22.7 -128.8,-33.8 -39.6,-14.9 -77.8,-27.5 -111.9,-43.3 -68.8,-30.5 -126,-62.9 -171.1,-92.3 -1.8,-1.2 -3.3,-2.3 -5.1,-3.5 -8.3,14.3 -16.7,28.4 -25.4,42.4 149.1,138.9 365.1,224.5 529.6,347.2 z m 2119.8,-1163.7 c -66,60.1 -135,113.5 -196.4,128.3 82.8,-96.5 177.1,-222.8 191.8,-338.9 -297,155.6 -443,547.7 -748.3,722.8 29.3,-185.3 184.3,-440.7 240.9,-646.1 -220.3,225.9 -422.6,739 -748.6,808.6 19.5,-189.5 221.9,-346.6 270.2,-539.7 -235.2,241.2 -407.3,536.3 -637.2,783.8 14.8,-2.1 29.4,-4.1 44.3,-6.4 112.2,-17.9 226.5,-46.9 340.3,-83.2 114.1,-35.6 227.3,-80.7 337.8,-131.2 222.5,-98.2 432.9,-222.9 620.6,-353.1 93.7,-65.4 182.3,-131.6 264.7,-196.4 34.1,-28.1 66.9,-55.2 99.4,-82 -36.4,16.4 -73.4,32.8 -112.6,48.5 -3,-43.2 10.6,-80.9 33.1,-115 z m -602.5,-1119.6 c -53.8,-125.5 -264.2,-117.4 -375.9,-192.1 186.3,-120.9 517.1,-1 655.5,-227.9 -0.1,0.4 -160,-84 -175.6,-92.1 195.2,-74.2 441.9,-184.8 565.7,-363.9 -171.2,34.6 -304.4,97.1 -444.1,162.8 -20.9,19.5 -41.3,38.5 -63.1,58.8 -37.5,32.8 -76.1,66.7 -115.9,101.5 -81.2,67.8 -168,138.1 -262.7,204.3 -94,67 -194.2,132.2 -298.8,193.8 -105.1,60.8 -213.7,119.7 -326.5,170.2 -112.7,50.4 -228.2,94.9 -344.8,130 -116.3,35.9 -233.1,64.2 -347.9,81.4 -110.3,17.4 -218.6,25.7 -321.5,23.1 40.4,115.3 71.2,235.1 89.9,360 107,38.9 213.2,47.9 282.6,-20.1 -47.9,-24.7 -161.1,-115.9 -131.9,-176.9 61.6,-128.9 217.3,-15.8 315.5,11 201,54.9 586,142.2 763.2,15.6 -153.1,-126.8 -357.1,-143.2 -496.4,-302.1 357.8,-5.1 699.1,19.9 1032.7,-137.4 z m 41.8,-731.4 c -65.9,60.1 -134.9,113.4 -196.4,128.2 82.9,-96.5 177.1,-222.8 191.8,-338.9 -296.9,155.7 -443,547.7 -748.3,722.9 29.3,-185.3 184.3,-440.8 240.9,-646.2 -220.2,225.9 -422.5,739.1 -748.5,808.6 19.5,-189.4 221.8,-346.5 270.2,-539.7 -235.2,241.2 -407.2,536.4 -637.2,783.9 14.7,-2.2 29.3,-4.1 44.2,-6.5 112.3,-17.8 226.6,-46.8 340.3,-83.2 114.2,-35.5 227.3,-80.6 337.8,-131.1 111.5,-48.5 219.1,-105.7 323.4,-164.6 103.9,-59.8 203.6,-123.1 297.2,-188.6 93.7,-65.3 182.3,-131.5 264.7,-196.3 34.1,-28.2 66.9,-55.3 99.4,-82 -36.3,16.4 -73.3,32.8 -112.5,48.5 -3,-43.3 10.5,-80.9 33,-115 z m -1976.2,787.1 c 23.4,50.8 45.5,102.3 65.1,154.9 0.7,0 1.3,0.1 1.9,0.1 80.7,0.3 164.7,-7.1 250.5,-18.7 -17.9,-266.6 158.6,-544.5 252.8,-789.8 -133.6,161.1 -352.7,534.1 -570.3,653.5 z m 523.5,870.5 c -116.5,-9.1 -228.2,-28.2 -334.5,-54.9 0.6,68.1 -2.5,137.6 -9.4,208.5 104.1,-58.4 220.1,-109 343.9,-153.6 z m -570.5,904.2 -8,6.4 c -8.8,16.4 -18,32.2 -27.2,48.1 2,1.2 3.7,2.2 5.6,3.5 46.1,26.8 104.1,56 173.3,82.6 34.3,13.9 72.4,24.4 111.8,37.1 40.6,8.9 82.1,22.6 127.2,28.9 89.2,17.9 188,24.9 292,24.7 80.7,0.4 164.6,-7.1 250.4,-18.7 -17.8,-266.5 158.6,-544.5 252.8,-789.8 -154.8,186.8 -424.6,659.1 -673.8,690.1 -21,-100 94,-455.2 -8.3,-480.5 -195.7,-48.7 -280.6,451.2 -495.8,367.6 z m -65,-2218.7 c -45.9,-11.4 -85.7,7.6 -122.5,42.1 53.2,75.4 102.9,153.4 148.3,234.1 18.8,-126.5 35.8,-260.9 -25.8,-276.2 z m -258.3,483.6 c -136.6,5.5 -203.9,205.1 -313.6,282.8 -46.6,-217.2 183.5,-483.6 20.8,-693.7 0.2,0.3 -135.6,119.5 -148.7,131.3 0.2,-208.8 -15.2,-478.8 -138.4,-658.3 -28.7,172.3 -17.8,319 -6.2,472.8 10.8,26.5 21.3,52.4 32.5,80.1 17.3,46.6 35.1,94.9 53.6,144.4 34.3,100 69,206.2 97.2,318.2 29.1,111.8 54.3,228.7 74.6,348.4 19.3,119.8 35.7,242.3 42.6,365.6 7,123.3 7.4,247.1 -1.4,368.6 -7.8,121.3 -23,240.6 -47.9,354 -24,113.5 -56.1,221.7 -97.5,319.9 -40.7,98.3 -86.1,188.7 -138,265.8 -23.8,39.9 -52.6,74.2 -77.5,108.3 -28,31.7 -53.4,62.9 -80.33,89.2 -53.04,53.4 -103.67,95.3 -147.18,126.9 -9.18,6.4 -17.7,12.2 -26.06,18 l 13.67,42.8 c 199.6,-83.1 365.7,-272 550.9,-389.5 143.2,-90.7 441.5,-310.9 359.3,-499.6 -40.2,35.8 -165.7,109.2 -212.2,60.1 -98.5,-103.4 62.7,-208.6 122.6,-290.8 123,-168.3 341.7,-496.9 286.5,-707.5 -172.9,97.7 -260.9,282.6 -459.2,356 122.9,-336 267.9,-646 239.9,-1013.8 z m -570.8,-1289.5 c -1.5,-43.3 -2.8,-86.9 -4,-130.4 -1.2,43.5 -2.2,87.1 -3.7,130.4 -0.9,26.4 -1.8,52.8 -2.8,79 4.7,4 9.3,8.1 14,12.2 -1.2,-30.4 -2.4,-60.7 -3.5,-91.2 z m -97.7,989.8 c 32.5,83 57.8,166.5 49.6,229.1 -60.5,-111.7 -144.91,-244.8 -248.19,-299.9 39.72,332.9 353.89,609.1 408.69,956.8 -162.6,-93.5 -346.08,-329.3 -517.83,-455.4 132.57,286.3 539.83,658.2 488.73,987.6 -170.1,-85.8 -244.75,-330.8 -407.95,-444.9 141.56,305.9 356.05,571.8 505.35,874.9 3.2,-14.6 6.6,-29 9.6,-43.7 23.4,-111.3 37.1,-228.4 43.6,-347.7 7.5,-119.3 5.7,-241.1 -2.1,-362.3 -5.6,-121.5 -20.6,-242.4 -38.5,-360.8 -18.9,-118.4 -42.5,-234.1 -70.3,-344.9 -27.7,-110.9 -57.9,-217.2 -89.2,-317.3 -14.1,-42 -27.7,-82.4 -41.2,-122.3 2.4,39.9 4.5,80.3 5.2,122.6 -41.4,-12.6 -71.7,-38.7 -95.5,-71.8 z m -376.33,1361.2 c 119.26,211.3 464.33,631.6 404.63,875.4 -101,-16 -391.78,-249.9 -452.01,-163.3 -115.08,165.4 321.72,422.8 166.84,594.2 l 21.09,65.8 c 7.3,-5.7 14.61,-11.4 22.5,-17.5 41.56,-33.5 89.45,-77.3 139.02,-132.4 25.24,-27.1 48.56,-59 74.46,-91.3 22.8,-34.7 50.4,-68.6 72.4,-108.6 48.5,-76.9 90.2,-166.7 127.1,-263.9 29.1,-75.3 52.1,-156.4 71.8,-240.7 -255.4,-78.3 -452.28,-342.3 -647.83,-517.7 z m 2333.93,3434.1 c 135.8,101.6 447.9,301.7 594.9,157.7 -47.8,-24.8 -161,-116 -131.9,-177 61.7,-128.8 217.3,-15.7 315.5,11.1 201.1,54.8 586,142.1 763.2,15.5 -153,-126.8 -357.1,-143.2 -496.3,-302.1 357.8,-5.1 699,19.9 1032.6,-137.3 -53.7,-125.6 -264.2,-117.4 -375.8,-192.2 186.2,-120.9 517.1,-0.9 655.5,-227.8 -0.2,0.3 -160,-84.1 -175.7,-92.2 195.2,-74.1 441.9,-184.7 565.8,-363.9 -171.3,34.7 -304.5,97.2 -444.2,162.9 -20.8,19.4 -41.2,38.4 -63.1,58.7 -37.4,32.8 -76.1,66.7 -115.8,101.5 -81.2,67.8 -168,138.1 -262.7,204.3 -94,67 -194.3,132.2 -298.9,193.9 -105,60.7 -213.6,119.7 -326.4,170.1 -112.7,50.5 -228.3,94.9 -344.8,130 -116.3,36 -233.1,64.3 -348,81.5 -114.5,18 -227,26.5 -333.5,22.9 -106.4,-3 -207,-13.3 -297.6,-34.2 -45.8,-8.1 -88.1,-22.7 -128.8,-33.8 -39.6,-15 -77.8,-27.5 -112,-43.4 -68.8,-30.5 -126,-62.8 -171,-92.2 -9.3,-6.3 -17.7,-12.2 -26.1,-17.9 l -35.1,28 c 148.7,156.8 384.5,244.8 560.2,375.9 z m 2119.8,-1163.5 c -65.9,60 -134.9,113.4 -196.3,128.1 82.8,-96.5 177,-222.7 191.8,-338.9 -297,155.7 -443,547.7 -748.3,722.9 29.3,-185.3 184.3,-440.8 240.9,-646.1 -220.3,225.9 -422.6,739 -748.5,808.6 19.5,-189.5 221.8,-346.6 270.1,-539.7 -235.2,241.2 -407.3,536.3 -637.2,783.8 14.7,-2.1 29.4,-4.1 44.3,-6.5 112.2,-17.8 226.5,-46.8 340.3,-83.1 114.1,-35.6 227.3,-80.7 337.8,-131.2 222.5,-98.2 433,-222.9 620.6,-353.2 93.7,-65.3 182.2,-131.5 264.7,-196.3 34.1,-28.2 66.9,-55.2 99.4,-82 -36.4,16.5 -73.4,32.8 -112.6,48.5 -3,-43.2 10.6,-80.9 33,-114.9 z m -5108.61,250.3 c 25.39,102.4 380.47,-12.5 480.51,8.6 -31.06,249.1 -503.4,518.8 -690.16,673.7 245.27,-94.2 523.28,-270.7 789.84,-252.8 11.65,-85.8 19.07,-169.7 18.75,-250.4 0.16,-104 -6.83,-202.8 -24.68,-291.9 -6.33,-45.2 -19.96,-86.7 -28.91,-127.3 -12.69,-39.4 -23.16,-77.6 -37.07,-111.8 -26.6,-69.2 -55.74,-127.2 -82.66,-173.3 -5.19,-8.5 -10,-16.4 -14.8,-24.3 l -43.09,53.9 c 83.6,215.3 -416.32,300.1 -367.73,495.6 z m 237.03,-1383.9 c -144.53,322.8 -310.16,634.8 -498.79,932 120.43,-151.9 268.17,-258.6 452.58,-297.5 54.73,-142 107.07,-290.9 156.84,-446.4 -44.57,-56.4 -81.25,-119.3 -110.63,-188.1 z m -1212.19,1858 c 2.74,15.7 5.12,31.5 6.84,47.7 21.29,162.7 -53.28,338.2 -197.62,495.8 57.38,-19.4 114.49,-44.7 171.45,-75.8 92.77,-50.7 184.8,-118.2 275.47,-200 78.16,-362.9 176.95,-722.4 329.41,-999.3 -176.37,257.6 -371.52,502.1 -585.55,731.6 z m 401.84,-1035.3 c -11.02,-1.1 -22.31,-2.2 -34.49,-3.4 -58.71,-7.2 -129.69,-20.6 -209.18,-43.8 -39.92,-10.9 -80.86,-27.4 -124.69,-42.9 -42.11,-19.6 -88.01,-37.2 -132.15,-62.8 -90.98,-46.5 -182.81,-109.1 -274.33,-181.9 -92.08,-72.3 -180.55,-159.2 -264.18,-255.4 -84.5,-95.6 -162.66,-202.1 -235.08,-314.5 -73.21,-111.9 -138.95,-231.1 -198.05,-353.3 -59.37,-122.2 -109.14,-248.6 -154.69,-374 -44.45,-125.8 -82.89,-251.4 -114.65,-374.4 -16.87,-61.2 -29.72,-122.4 -43.35,-181.9 -11.53,-59.9 -22.74,-118.6 -33.68,-175.7 -8.9,-57.5 -17.57,-113.4 -25.97,-167.4 -3.79,-30.3 -7.46,-59.9 -11.1,-89.1 -71.95,-155.9 -140.04,-304.3 -261.01,-456.2 -22.42,238.5 107.11,506.2 219.02,706.8 -18.91,-4.3 -213.2,-46.2 -213.16,-46.7 -43.91,289.1 319.53,422.1 390.9,655.7 -147,-16.1 -318.33,-171.8 -452.47,-104.1 169.69,368.5 474.81,588.9 772.54,846.3 -229.76,35.2 -413.16,-95.3 -631.75,-96.7 59.6,232 445.58,430.9 653.75,526.9 101.64,46.9 312.77,61.7 273.47,213.8 -18.59,72 -178.4,68.8 -236.17,55.8 21.84,225.4 426.37,277.5 612.54,288.2 240.86,13.7 501.52,106.5 737.73,79.6 z m -16.76,-83.8 c -240.47,-82 41.72,-563.1 -157.34,-660.5 -104.26,-50.9 -258.6,329.4 -347.15,398.7 -187.89,-202.4 -80.9,-790.9 -79.22,-1057.9 -94.49,274 -142.46,634.1 -347.42,845.8 64.1,70.5 129.69,136.1 197.93,192.8 87.69,73.6 176.01,137.6 263.9,185.5 42.62,26.6 87.31,44.5 127.86,65.6 42.22,17 81.87,35.2 120.62,47.6 77.19,26.3 146.76,42.7 204.61,52.5 10.98,1.7 21.09,3.2 31.17,4.7 z M 7491.45,14105 c -95.82,196.8 -36.61,472.3 -154.15,645.6 -225.39,-289.1 -32.77,-864.5 -58.39,-1210.5 -97.74,213 -147.89,537.8 -254.26,714.6 -133.17,-363.5 21.09,-797 -118.83,-1138.2 -69.84,108.2 -79.65,281.2 -78.24,421.1 -41.29,-55.9 -61.72,-149.7 -74.65,-246.9 -5.2,44.6 -20.43,85.9 -53.59,120.2 -23.01,-43.1 -43.52,-85 -63.32,-126.5 8.71,47.4 17.53,95.7 26.68,145.7 23.39,113 50.97,231.5 83.63,352.9 32.58,121.4 71.68,245.4 116.76,369.4 46.13,123.5 96.4,247.8 155.93,367.7 57.43,120.8 120.94,238.8 192,349.6 70.19,111.2 146.09,216.6 228.12,311 11.49,13.3 23.09,26 34.61,39 -19.26,-372.4 45.27,-744 17.7,-1114.7 z m 343.63,2975.9 c -8.83,5 -17.78,10.1 -27.46,15.6 -47.42,25.4 -107.15,52.9 -178.32,77.4 -35.39,12.9 -74.5,22.2 -115.2,33.7 -41.56,7.6 -84.96,18.5 -131.21,22.7 -92.07,13.2 -193.2,14.9 -299.41,8.8 -106.41,-5.4 -217.78,-23.5 -330.43,-51.2 -113.01,-26.8 -226.96,-65 -339.73,-110.6 -113.16,-45 -224.53,-99.1 -332.5,-158.9 -108.12,-59.9 -211.33,-127.8 -310.9,-197.3 -98.94,-70.3 -193.28,-143.7 -281.25,-218.5 -88.67,-74.1 -169.26,-151.5 -244.37,-225.8 -36.68,-38.2 -72.35,-75.2 -106.84,-111 -20,-22.1 -38.71,-42.8 -57.85,-63.9 -133.63,-77.4 -261.06,-150.9 -428.67,-200 108.16,189 344.61,320.1 532.73,410.6 -16.25,6.7 -182.65,77.2 -182.77,76.9 118.55,237.8 458.4,146.5 633.71,282.8 -117.62,65 -326.56,38.9 -390.78,159.4 318.98,185 661.13,189.2 1017.19,224.6 -152.27,146.5 -356.96,145.5 -520.2,258.9 165.78,141.2 556.8,86.9 761.76,49.3 100.12,-18.3 264.84,-117.8 315.23,15.8 23.87,63.3 -96.6,144.5 -146.36,165.1 134.25,156.1 462.26,-16.9 606.17,-106.5 186.21,-115.8 428.55,-183.3 590.04,-327 z m -56.68,-53.8 c -221.64,65 -263.75,-440.4 -462.7,-408.5 -104.14,16.6 -19.72,380.2 -49.22,478.1 -245.66,-52.2 -474.25,-545.6 -612.77,-744.9 73.05,252.4 225.31,544.3 184.88,808.4 84.5,18.9 167.5,33.4 247.86,39.9 103.63,9 202.65,10.5 293.04,0.2 45.51,-2.5 88.05,-12.5 129.22,-18 40.31,-9.3 79.26,-16.5 114.61,-27.4 71.13,-20.7 131.45,-44.8 179.57,-67.7 8.99,-4.5 17.27,-8.6 25.51,-12.7 z m -1538.91,-709.2 c 31.88,196.5 220.04,370.2 223.48,560.6 -318.95,-96.9 -476.95,-625.4 -677.19,-869.2 38.91,209.5 171.64,477.2 185.16,664.3 -289.3,-200.5 -401.6,-603.5 -684.22,-783.8 4.76,117 88.01,250.7 162.34,353.9 -59.96,-19.9 -124.26,-79 -184.76,-144.4 19.45,35.9 29.8,74.6 23.12,117.4 -37.73,-19 -73.24,-38.4 -107.97,-57.9 30,29.4 60.43,59.1 92,90 76.64,71.7 159.21,145.1 247.03,218.2 175.9,145.7 375,287.8 588.4,404.6 105.78,59.7 214.68,114.3 325.39,159.3 110.27,46 221.71,84.6 332.07,111.9 14.57,3.6 29.02,6.9 43.51,10.3 -208.16,-266.2 -354.49,-574.9 -568.36,-835.2 z m 2561.6,1936.4 c -14.8,61.4 -68.16,130.5 -128.2,196.3 34.06,-22.4 71.76,-36 114.96,-33 -15.74,39.2 -32.07,76.2 -48.51,112.6 26.71,-32.5 53.82,-65.3 81.95,-99.4 64.88,-82.4 131.05,-171 196.41,-264.7 65.5,-93.6 128.82,-193.3 188.67,-297.1 58.94,-104.3 116.05,-211.9 164.57,-323.4 50.54,-110.5 95.66,-223.7 131.21,-337.8 36.4,-113.7 65.39,-228.1 83.28,-340.3 2.34,-14.9 4.3,-29.5 6.48,-44.2 -247.53,229.9 -542.73,401.9 -783.94,637.1 193.12,-48.4 350.19,-250.6 539.65,-270.2 -69.53,326 -582.74,528.2 -808.67,748.4 205.43,-56.5 460.93,-211.4 646.21,-240.7 -175.2,305.2 -567.23,451.2 -722.97,748.1 116.13,-14.7 242.42,-108.9 338.9,-191.7 z m 91.06,258.6 c 8.05,15.7 92.42,175.4 92.11,175.6 226.95,-138.3 106.99,-469.2 227.93,-655.4 74.8,111.6 66.52,322.1 192.11,375.8 157.34,-333.5 132.38,-674.8 137.46,-1032.6 158.9,139.3 175.27,343.4 302.03,496.4 126.68,-177.1 39.45,-562.1 -15.39,-763.3 -26.76,-98.1 -139.81,-253.8 -10.98,-315.4 60.98,-29.1 152.11,84.1 176.92,131.9 144.06,-147 -56.06,-459.1 -157.54,-594.9 -131.21,-175.8 -219.03,-411.6 -375.82,-560.3 l -28.09,35.1 c 5.74,8.3 11.6,16.9 17.93,26 29.38,45.1 61.76,102.3 92.23,171.2 15.86,34.2 28.36,72.3 43.32,111.9 11.09,40.7 25.7,83.1 33.75,128.8 20.97,90.6 31.17,191.3 34.18,297.6 3.67,106.5 -4.92,219 -22.97,333.6 -17.15,114.9 -45.55,231.7 -81.45,347.9 -35.15,116.5 -79.65,232.1 -130.11,344.8 -50.47,112.8 -109.46,221.4 -170.2,326.4 -61.68,104.6 -126.8,204.8 -193.91,298.9 -66.25,94.6 -136.56,181.4 -204.29,262.6 -34.85,39.8 -68.75,78.4 -101.49,115.8 -20.31,21.9 -39.33,42.2 -58.79,63.1 -65.74,139.7 -128.28,272.9 -162.93,444.1 179.14,-123.7 289.77,-370.5 363.99,-565.6 z m 3945.45,-2789.1 c 698.2,-78.1 1890.5,114.9 2324.5,-304.8 -263.8,802.7 -677.1,2011.7 -1849.5,2302.2 -1180,270.2 -2147.1,-517.6 -2028,-1063.5 6.9,-35.5 16.4,-69.8 28.1,-102.7 -248.4,-418.5 -465.6,-944.1 -644.1,-1552.6 -384.1,370.7 -855.05,502 -1123.68,326.3 -9.29,-5.8 -18.04,-12 -26.95,-18.1 -33.36,100.7 -67.46,199.8 -103.01,295.2 -0.7,1.9 -1.41,3.7 -2.11,5.6 517.62,103.6 1108.95,981.5 869.25,2027.2 -290.69,1172.3 -1499.76,1585.5 -2302.45,1849 380,-392.8 257.89,-1407.4 289.41,-2114.1 -50.9,36.6 -102.54,69.9 -155.23,98.8 -173.79,95.3 -358.28,147.1 -547.46,147 v -9.4 c -396.92,243.1 -994.38,365.2 -1629.42,161.7 -1143.43,-389.1 -1452.61,-1628.8 -1647.18,-2451 396.75,455 1601.13,364 2290.27,501.1 591.09,177.4 1180.12,406.9 1390.74,809.4 173.13,-192.3 332.74,-395.8 479.85,-608.3 -528.44,226.1 -1517.7,37.5 -2152,-802.2 -781.79,-1074.1 -274.68,-2384.7 71.14,-3247.3 68.59,660.4 1209.25,1341.4 1742.14,1901.2 383.32,488 737.19,1014.2 745.12,1479.4 115.86,-217.6 220.59,-442.1 315.12,-671.7 -52.35,-335.3 -9.61,-740.6 53.63,-1137.3 91.95,-355.8 301.21,-811.2 446.13,-1244.2 98.17,-293.5 166.72,-576.6 149.11,-811.3 -3.68,-48.9 -11.53,-95.3 -23.13,-139.6 -1023.01,-12.8 -1904.34,-116.4 -2390.98,-265.6 -175.86,54 -300.39,113.8 -361.32,177.4 240.23,-252.2 1477.46,-444.5 2967.91,-444.5 1186.6,0 2212.8,121.9 2703.1,298.9 l -0.2,0.3 c -30.2,-10.9 -62.2,-21.6 -96.4,-32.1 -457.3,140.2 -1263.3,240.1 -2207.7,262.3 1.8,47.3 4.4,94.7 6.9,142.1 6.5,123.5 15,247.2 25.8,370.9 43.9,44.2 87.1,89.5 129.6,136 301.9,-213.8 751.8,-336.5 1200.5,-430.4 698.3,-78.1 1890.6,114.8 2324.5,-304.8 -69.4,211.2 -149.4,450.6 -250.5,693.8 -231.2,556 -574.7,1132.2 -1162.4,1442.1 694.7,-13.4 1606,70.6 1973.6,-284.8 -263.7,802.7 -677.1,2011.6 -1849.5,2302.2 -551.3,126.2 -1056,21.4 -1425.3,-181.7 142.4,273.7 302.1,537.5 478.8,790 279.3,-135.7 626.6,-225.5 973.3,-298.1"
         style="fill:#1f4f26;fill-opacity:1;fill-rule:nonzero;stroke:none"
         id="path74" /></g></g></svg>
