<?xml version="1.0" encoding="UTF-8" standalone="no"?>
<svg
   xmlns:dc="http://purl.org/dc/elements/1.1/"
   xmlns:cc="http://creativecommons.org/ns#"
   xmlns:rdf="http://www.w3.org/1999/02/22-rdf-syntax-ns#"
   xmlns:svg="http://www.w3.org/2000/svg"
   xmlns="http://www.w3.org/2000/svg"
   xmlns:sodipodi="http://sodipodi.sourceforge.net/DTD/sodipodi-0.dtd"
   xmlns:inkscape="http://www.inkscape.org/namespaces/inkscape"
   version="1.1"
   id="svg2"
   xml:space="preserve"
   width="2733.3333"
   height="2928"
   viewBox="0 0 2733.3333 2928"
   sodipodi:docname="vecteezy_plant-nature-in-pot_.eps"><metadata
     id="metadata8"><rdf:RDF><cc:Work
         rdf:about=""><dc:format>image/svg+xml</dc:format><dc:type
           rdf:resource="http://purl.org/dc/dcmitype/StillImage" /></cc:Work></rdf:RDF></metadata><defs
     id="defs6" /><sodipodi:namedview
     pagecolor="#ffffff"
     bordercolor="#666666"
     borderopacity="1"
     objecttolerance="10"
     gridtolerance="10"
     guidetolerance="10"
     inkscape:pageopacity="0"
     inkscape:pageshadow="2"
     inkscape:window-width="640"
     inkscape:window-height="480"
     id="namedview4" /><g
     id="g10"
     inkscape:groupmode="layer"
     inkscape:label="ink_ext_XXXXXX"
     transform="matrix(1.3333333,0,0,-1.3333333,0,2928)"><g
       id="g12"
       transform="scale(0.1)"><path
         d="m 9410.08,8354.4 c -23.67,78.5 -46.29,158.1 -67.5,239.2 -61.92,-76.1 -124.73,-149.9 -188.09,-221.3 4.26,-0.3 8.44,-0.7 12.7,-1.1 79.88,-6.6 161.09,-11.9 242.89,-16.8"
         style="fill:#6f4246;fill-opacity:1;fill-rule:nonzero;stroke:none"
         id="path14" /><path
         d="m 8791.09,7225.8 c 173.29,-22.2 356.84,-39.2 546.88,-54.7 181.37,-14.7 369.26,-23.2 559.88,-31.3 -153.87,305.6 -311.13,666.8 -441.99,1068.4 -101.64,8.3 -202.27,17.6 -301.09,27.5 -38.09,3.8 -75.63,8.2 -113.21,12.5 -339.72,-364.8 -688.08,-662.1 -987.73,-889.5 78.67,-20 162.3,-38.9 251.44,-56.4 149.46,-29.1 312.7,-53.9 485.82,-76.5"
         style="fill:#6f4246;fill-opacity:1;fill-rule:nonzero;stroke:none"
         id="path16" /><path
         d="m 13613.6,6316.1 c -18.2,-45.8 -66.3,-103.5 -141.1,-155.8 -149.2,-107 -394.1,-202.6 -693.4,-280.1 -149.9,-39.1 -313.9,-74.6 -488.6,-104.1 -174.5,-30.1 -359.3,-56.8 -551.4,-76.3 -192,-19.5 -390.7,-37.3 -593.1,-46.2 -201.8,-9.6 -408.9,-15 -613.7,-15.8 -205.7,0.9 -411.4,6.2 -613.75,15.9 -202.3,9.2 -401.09,26.7 -593.04,46.3 -192.03,19.5 -376.92,46.3 -551.49,76.3 -174.61,29.5 -338.59,65.1 -488.39,104.1 -299.38,77.5 -544.22,173 -693.44,280 -74.92,52.3 -122.93,109.9 -141.1,155.8 -17.69,46.8 -11.36,72.8 -13.43,72.7 1.79,0.9 -0.63,-27.6 20.97,-69.2 22.07,-42 74.26,-89.8 150.2,-133.6 152.62,-88.5 398.2,-160.8 696.44,-219.3 149.46,-29.1 312.7,-54 485.78,-76.6 173.33,-22.1 356.84,-39.1 546.92,-54.7 190.08,-15.3 387.03,-24.1 587.11,-32.5 200.12,-7.8 403.72,-11.2 607.22,-10.4 204.4,-0.6 406.6,2.6 607.2,10.5 200.1,8.7 397.1,17.2 587.2,32.6 380.1,29.4 733.6,73.5 1032.6,131.3 298.2,58.5 543.9,130.7 696.4,219.2 75.9,43.8 128.2,91.5 150.2,133.6 21.8,42 19.2,69.6 21,69.1 -1.9,0.4 4.2,-26.4 -13.3,-72.8 z m 0,-1335.6 c -18.2,-45.7 -66.3,-103.4 -141.1,-155.7 -149.2,-107 -394.1,-202.6 -693.4,-280.1 -149.9,-39.2 -313.9,-74.6 -488.6,-104.2 -174.5,-30 -359.3,-56.8 -551.4,-76.2 -192,-19.6 -390.6,-37.3 -593.1,-46.2 -201.8,-9.7 -408.9,-15.1 -613.7,-15.8 -205.7,0.9 -411.4,6.1 -613.75,15.9 -202.3,9.1 -401.09,26.7 -593.04,46.3 -192.03,19.4 -376.92,46.3 -551.49,76.2 -174.61,29.5 -338.59,65.1 -488.39,104.2 -299.38,77.5 -544.22,173 -693.44,280 -74.92,52.2 -122.93,109.9 -141.1,155.6 -17.69,47 -11.36,72.9 -13.43,72.9 1.79,0.8 -0.63,-27.7 20.97,-69.2 22.07,-42 74.26,-89.8 150.2,-133.6 152.62,-88.6 398.2,-160.8 696.44,-219.4 149.42,-29.1 312.7,-53.9 485.78,-76.5 173.33,-22.1 356.84,-39.2 546.92,-54.7 190.08,-15.4 387.03,-24.2 587.11,-32.5 200.12,-7.9 403.72,-11.3 607.22,-10.4 204.4,-0.7 406.6,2.6 607.2,10.5 200.1,8.6 397.1,17.1 587.2,32.6 380.1,29.4 733.7,73.4 1032.6,131.2 298.2,58.6 543.9,130.8 696.4,219.3 75.9,43.8 128.2,91.5 150.2,133.5 21.8,42 19.2,69.7 21,69.2 -1.9,0.4 4.2,-26.4 -13.3,-72.9 z m 85.7,6196.7 c -2.2,2.6 -4.4,5.1 -6.4,7.8 -395.8,-99.3 -909.7,-179.3 -1500.6,-232.1 32.7,-270.2 46.8,-549.3 35.9,-834.3 -2.5,-64.7 -6.5,-128.9 -11.4,-192.7 313,32.1 604.5,73.8 860.6,124.4 340.7,68.3 621.2,152.3 795.2,254.7 86.8,50.7 146.1,105.9 171,154.1 11.2,24.3 19.1,43.9 20,58.1 2.3,14 3.4,21.2 3.4,21.2 0,0 -0.4,-7.3 -1.3,-21.4 0.5,-14.6 -5.4,-35 -14.4,-61.5 -21.1,-52.1 -76.3,-117.2 -161.9,-176.3 -170.7,-120.9 -450.4,-228.5 -792.3,-315.6 -171,-44.1 -358.3,-83.8 -557.7,-117.1 -108.2,-18.3 -220.3,-35.3 -334.9,-50.7 -52.2,-510 -176.7,-991 -336.8,-1426.6 9.8,0.8 19.9,1.4 29.7,2.2 434.5,34.4 838.5,85.9 1180,153.4 340.7,68.2 621.2,152.3 795.2,254.8 86.8,50.6 146.1,105.9 171,154.1 11.2,24.3 19.1,43.8 20,58 2.3,14 3.4,21.2 3.4,21.2 0,0 -0.4,-7.3 -1.3,-21.5 0.5,-14.5 -5.4,-34.9 -14.4,-61.4 -21.1,-52.1 -76.3,-117.2 -161.9,-176.3 -170.7,-120.9 -450.4,-228.5 -792.3,-315.6 -171,-44 -358.3,-83.8 -557.7,-117 -199.3,-33.8 -410.3,-63.7 -629.6,-85.6 -31.9,-3.2 -64.5,-6.2 -96.8,-9.3 -160.5,-408.2 -348.6,-773.2 -530.7,-1081 150.8,6.9 299.9,14.4 444.4,26 380.1,29.5 733.6,73.5 1032.6,131.3 298.2,58.6 543.9,130.7 696.4,219.3 75.9,43.7 128.2,91.5 150.2,133.5 21.8,42 19.2,69.7 21,69.1 -1.9,0.4 4.2,-26.4 -13.3,-72.7 -18.2,-45.9 -66.3,-103.6 -141.1,-155.8 -149.2,-107 -394.1,-202.6 -693.4,-280.1 -149.9,-39.2 -313.9,-74.6 -488.6,-104.2 -174.5,-30 -359.3,-56.7 -551.4,-76.2 -178.3,-18.2 -362.6,-34.5 -550,-43.9 -350.8,-563.8 -655,-898.8 -655,-898.8 0,0 -261.5,336.7 -557.3,894.4 -19.34,0.9 -38.95,1.2 -58.25,2.2 -202.3,9.1 -401.09,26.6 -593.04,46.3 -192.03,19.4 -376.92,46.3 -551.45,76.2 -174.65,29.5 -338.59,65.1 -488.43,104.1 -108.21,28.1 -208.99,58.6 -300.94,90.9 -440.63,-327 -759.96,-494.5 -759.96,-494.5 0,0 -551.96,1718.2 -136.49,3538.8 -36.76,36.8 -62.11,73 -74.8,104.4 -9.22,26.8 -15.08,47.1 -14.46,61.5 -0.93,14.1 -1.44,21.4 -1.44,21.4 0,0 1.25,-7.2 3.55,-21.2 0.79,-14.4 8.87,-34 19.89,-58.1 13.82,-26.7 38.63,-55.7 72.5,-84.8 62.22,267.7 145.39,537.4 254.57,804.1 1.56,3.8 3.2,7.5 4.76,11.3 -184.29,46.9 -341.95,98 -469.18,152.5 -2.3,1 -4.49,2 -6.72,3 -32.81,14.2 -63.67,28.6 -92.22,43.2 -1.25,0.7 -2.58,1.3 -3.83,1.9 -13.05,6.7 -25.47,13.5 -37.58,20.4 -5.98,3.3 -11.76,6.7 -17.5,10.1 -16.37,9.6 -31.8,19.3 -46.25,29.1 -7.89,5.3 -15.74,10.6 -23.12,16 -7.23,5.3 -14.07,10.6 -20.82,16 -8.25,6.6 -16.02,13.3 -23.44,20 -5.63,5 -11.25,10.1 -16.33,15.1 -9.22,9.1 -17.5,18.3 -25.04,27.5 -3.2,3.9 -6.25,7.8 -9.1,11.8 -7.3,9.9 -13.79,19.8 -19.22,29.7 -0.78,1.5 -1.91,2.9 -2.66,4.4 -5.89,11.5 -10.07,23.1 -13.39,34.7 -0.9,3 -1.68,6.1 -2.43,9.2 -0.15,0.8 -0.43,1.7 -0.62,2.5 l 914.3,-7687.9 c 0,-372.1 1385.5,-673.6 3094.64,-673.6 1709.1,0 3094.6,301.5 3094.6,673.6 l 757.8,6371.9 c -206.9,278.1 -435.6,564.5 -685.4,856.4"
         style="fill:#6f4246;fill-opacity:1;fill-rule:nonzero;stroke:none"
         id="path18" /><path
         d="m 12074.1,11609.8 c 548.9,-45 1036,-113.2 1429.6,-198.4 -289.2,336.1 -599.6,650.2 -906.1,934.4 -240.4,28.4 -497.6,51.9 -767.5,70 93,-251.1 176.8,-521.5 244,-806"
         style="fill:#51202b;fill-opacity:1;fill-rule:nonzero;stroke:none"
         id="path20" /><path
         d="m 6526.41,11625.1 c 3.32,-11.6 7.5,-23.2 13.39,-34.7 0.75,-1.5 1.84,-2.9 2.66,-4.4 5.43,-9.9 11.92,-19.8 19.22,-29.7 2.93,-4 5.9,-7.9 9.1,-11.8 7.54,-9.2 15.82,-18.4 25.04,-27.5 5.12,-5 10.7,-10.1 16.33,-15.1 7.42,-6.7 15.19,-13.4 23.44,-20 6.75,-5.4 13.59,-10.7 20.82,-16 7.38,-5.4 15.23,-10.7 23.12,-16 14.53,-9.8 29.88,-19.5 46.25,-29.1 5.74,-3.4 11.52,-6.8 17.5,-10.1 12.15,-6.9 24.53,-13.7 37.58,-20.4 1.25,-0.6 2.58,-1.2 3.83,-1.9 28.59,-14.6 59.37,-29 92.22,-43.2 2.23,-1 4.42,-2 6.72,-3 52.89,-22.6 110.94,-44.6 173.99,-66 111.52,37.9 238.9,73.7 379.84,107.2 148.87,322.2 326.92,619.3 520.39,891.1 -879.06,-144.5 -1438.44,-361.6 -1438.44,-604.3 0,-11.2 1.61,-22.3 3.95,-33.4 0.19,-0.8 0.47,-1.7 0.62,-2.5 0.75,-3.1 1.53,-6.2 2.43,-9.2"
         style="fill:#51202b;fill-opacity:1;fill-rule:nonzero;stroke:none"
         id="path22" /><path
         d="m 6976.52,11305.3 c -32.38,12.1 -63.63,24.4 -92.89,36.9 29.26,-12.5 60.47,-24.8 92.89,-36.9"
         style="fill:#391317;fill-opacity:1;fill-rule:nonzero;stroke:none"
         id="path24" /><path
         d="m 7057.62,11276.2 c 0.27,0.1 0.54,0.2 0.82,0.2 -15.63,5.4 -31.21,10.7 -46.21,16.1 15.15,-5.5 29.65,-10.9 45.39,-16.3"
         style="fill:#391317;fill-opacity:1;fill-rule:nonzero;stroke:none"
         id="path26" /><path
         d="m 7352.81,11189.7 c 27.03,65.5 55.28,130.1 84.65,193.7 -140.62,-33.4 -267.66,-69.2 -379.02,-107 88.86,-30.1 186.44,-59.2 294.37,-86.7"
         style="fill:#391317;fill-opacity:1;fill-rule:nonzero;stroke:none"
         id="path28" /><path
         d="m 7012.23,11292.5 c -11.88,4.2 -24.18,8.5 -35.71,12.8 11.53,-4.3 23.83,-8.6 35.71,-12.8"
         style="fill:#391317;fill-opacity:1;fill-rule:nonzero;stroke:none"
         id="path30" /><path
         d="m 13692.9,11185 c -61.7,76.5 -125.1,151.9 -189.2,226.4 -393.6,85.2 -880.7,153.4 -1429.6,198.4 49.9,-211.7 90.8,-431 118.2,-656.9 590.9,52.8 1104.8,132.8 1500.6,232.1"
         style="fill:#391317;fill-opacity:1;fill-rule:nonzero;stroke:none"
         id="path32" /><path
         d="m 13455.7,4850.7 c -152.5,-88.5 -398.2,-160.7 -696.4,-219.3 -298.9,-57.8 -652.5,-101.8 -1032.6,-131.2 -190.1,-15.5 -387.1,-24 -587.2,-32.6 -200.6,-7.9 -402.8,-11.2 -607.2,-10.5 -203.5,-0.9 -407.1,2.5 -607.22,10.4 -200.08,8.3 -397.03,17.1 -587.11,32.5 -190.08,15.5 -373.59,32.6 -546.92,54.7 -173.08,22.6 -336.36,47.4 -485.78,76.5 -298.24,58.6 -543.82,130.8 -696.44,219.4 -75.94,43.8 -128.13,91.6 -150.2,133.6 -21.6,41.5 -19.18,70 -20.97,69.2 2.07,0 -4.26,-25.9 13.43,-72.9 18.17,-45.7 66.18,-103.4 141.1,-155.6 149.22,-107 394.06,-202.5 693.44,-280 149.8,-39.1 313.78,-74.7 488.39,-104.2 174.57,-29.9 359.46,-56.8 551.49,-76.2 191.95,-19.6 390.74,-37.2 593.04,-46.3 202.35,-9.8 408.05,-15 613.75,-15.9 204.8,0.7 411.9,6.1 613.7,15.8 202.5,8.9 401.1,26.6 593.1,46.2 192.1,19.4 376.9,46.2 551.4,76.2 174.7,29.6 338.7,65 488.6,104.2 299.3,77.5 544.2,173.1 693.4,280.1 74.8,52.3 122.9,110 141.1,155.7 17.5,46.5 11.4,73.3 13.3,72.9 -1.8,0.5 0.8,-27.2 -21,-69.2 -22,-42 -74.3,-89.7 -150.2,-133.5"
         style="fill:#391317;fill-opacity:1;fill-rule:nonzero;stroke:none"
         id="path34" /><path
         d="m 13455.7,6186.2 c -152.5,-88.5 -398.2,-160.7 -696.4,-219.2 -299,-57.8 -652.5,-101.9 -1032.6,-131.3 -190.1,-15.4 -387.1,-23.9 -587.2,-32.6 -200.6,-7.9 -402.8,-11.1 -607.2,-10.5 -203.5,-0.8 -407.1,2.6 -607.22,10.4 -200.08,8.4 -397.03,17.2 -587.11,32.5 -190.08,15.6 -373.59,32.6 -546.92,54.7 -173.08,22.6 -336.32,47.5 -485.78,76.6 -298.24,58.5 -543.82,130.8 -696.44,219.3 -75.94,43.8 -128.13,91.6 -150.2,133.6 -21.6,41.6 -19.18,70.1 -20.97,69.2 2.07,0.1 -4.26,-25.9 13.43,-72.7 18.17,-45.9 66.18,-103.5 141.1,-155.8 149.22,-107 394.06,-202.5 693.44,-280 149.8,-39 313.78,-74.6 488.39,-104.1 174.57,-30 359.46,-56.8 551.49,-76.3 191.95,-19.6 390.74,-37.1 593.04,-46.3 202.35,-9.7 408.05,-15 613.75,-15.9 204.8,0.8 411.9,6.2 613.7,15.8 202.4,8.9 401.1,26.7 593.1,46.2 192.1,19.5 376.9,46.2 551.4,76.3 174.7,29.5 338.7,65 488.6,104.1 299.3,77.5 544.2,173.1 693.4,280.1 74.8,52.3 122.9,110 141.1,155.8 17.5,46.4 11.4,73.2 13.3,72.8 -1.8,0.5 0.8,-27.1 -21,-69.1 -22,-42.1 -74.3,-89.8 -150.2,-133.6"
         style="fill:#391317;fill-opacity:1;fill-rule:nonzero;stroke:none"
         id="path36" /><path
         d="m 13455.7,7521.8 c -152.5,-88.6 -398.2,-160.7 -696.4,-219.3 -299,-57.8 -652.5,-101.8 -1032.6,-131.3 -144.5,-11.6 -293.6,-19.1 -444.4,-26 -31.3,-52.9 -62.5,-104.3 -93.2,-153.7 187.4,9.4 371.7,25.7 550,43.9 192.1,19.5 376.9,46.2 551.4,76.2 174.7,29.6 338.7,65 488.6,104.2 299.3,77.5 544.2,173.1 693.4,280.1 74.8,52.2 122.9,109.9 141.1,155.8 17.5,46.3 11.4,73.1 13.3,72.7 -1.8,0.6 0.8,-27.1 -21,-69.1 -22,-42 -74.3,-89.8 -150.2,-133.5"
         style="fill:#391317;fill-opacity:1;fill-rule:nonzero;stroke:none"
         id="path38" /><path
         d="m 8774.06,7111.8 c 174.53,-29.9 359.42,-56.8 551.45,-76.2 191.95,-19.7 390.74,-37.2 593.04,-46.3 19.3,-1 38.91,-1.3 58.25,-2.2 -26.1,49.3 -52.42,100 -78.95,152.7 -190.62,8.1 -378.51,16.6 -559.88,31.3 -190.04,15.5 -373.59,32.5 -546.88,54.7 -173.12,22.6 -336.36,47.4 -485.82,76.5 -89.14,17.5 -172.77,36.4 -251.44,56.4 -23.32,-17.7 -46.41,-35 -69.14,-51.9 91.95,-32.3 192.73,-62.8 300.94,-90.9 149.84,-39 313.78,-74.6 488.43,-104.1"
         style="fill:#391317;fill-opacity:1;fill-rule:nonzero;stroke:none"
         id="path40" /><path
         d="m 14043.6,8933.7 c -24.9,-48.2 -84.2,-103.5 -171,-154.1 -174,-102.5 -454.5,-186.6 -795.2,-254.8 -341.5,-67.5 -745.5,-119 -1180,-153.4 -9.8,-0.8 -19.9,-1.4 -29.7,-2.2 -17.7,-48.3 -36.1,-95.8 -54.7,-143 32.3,3.1 64.9,6.1 96.8,9.3 219.3,21.9 430.3,51.8 629.6,85.6 199.4,33.2 386.7,73 557.7,117 341.9,87.1 621.6,194.7 792.3,315.6 85.6,59.1 140.8,124.2 161.9,176.3 9,26.5 14.9,46.9 14.4,61.4 0.9,14.2 1.3,21.5 1.3,21.5 0,0 -1.1,-7.2 -3.4,-21.2 -0.9,-14.2 -8.8,-33.7 -20,-58"
         style="fill:#391317;fill-opacity:1;fill-rule:nonzero;stroke:none"
         id="path42" /><path
         d="m 9455.86,8208.2 c -15.66,48.1 -30.94,96.8 -45.78,146.2 -81.8,4.9 -163.01,10.2 -242.89,16.8 -4.26,0.4 -8.44,0.8 -12.7,1.1 -37.5,-42.2 -75.15,-83.6 -112.93,-124.1 37.58,-4.3 75.12,-8.7 113.21,-12.5 98.82,-9.9 199.45,-19.2 301.09,-27.5"
         style="fill:#391317;fill-opacity:1;fill-rule:nonzero;stroke:none"
         id="path44" /><path
         d="m 7020.98,10459.1 c -11.02,24.1 -19.1,43.7 -19.89,58.1 -2.3,14 -3.55,21.2 -3.55,21.2 0,0 0.51,-7.3 1.44,-21.4 -0.62,-14.4 5.24,-34.7 14.46,-61.5 12.69,-31.4 38.04,-67.6 74.8,-104.4 1.72,7.8 3.44,15.5 5.24,23.2 -33.87,29.1 -58.68,58.1 -72.5,84.8"
         style="fill:#391317;fill-opacity:1;fill-rule:nonzero;stroke:none"
         id="path46" /><path
         d="m 12216.8,9925.9 c -3.4,-43.7 -7.9,-86.8 -12.3,-130.1 114.6,15.4 226.7,32.4 334.9,50.7 199.4,33.3 386.7,73 557.7,117.1 341.9,87.1 621.6,194.7 792.3,315.6 85.6,59.1 140.8,124.2 161.9,176.3 9,26.5 14.9,46.9 14.4,61.5 0.9,14.1 1.3,21.4 1.3,21.4 0,0 -1.1,-7.2 -3.4,-21.2 -0.9,-14.2 -8.8,-33.8 -20,-58.1 -24.9,-48.2 -84.2,-103.4 -171,-154.1 -174,-102.4 -454.5,-186.4 -795.2,-254.7 -256.1,-50.6 -547.6,-92.3 -860.6,-124.4"
         style="fill:#391317;fill-opacity:1;fill-rule:nonzero;stroke:none"
         id="path48" /><path
         d="m 7230.59,14281.1 c -1979.57,8.2 -3390.12,-1286.7 -3676.68,-1620.3 99.49,169.8 352.69,589.1 864.53,989.2 650.11,532.8 1749.14,1031.3 2941.91,1003.1 877.07,-1.5 1572.5,-233 2076.21,-497.4 58.87,79.1 151.17,187 298.6,310.1 -198.79,201.9 -435.39,404.5 -707.82,603.3 -345.78,150.1 -761.36,262.9 -1256.21,305 -1392.15,147.6 -2754.33,-543.6 -3439.18,-1288.4 -702.15,-704.5 -791.91,-1456.9 -825.07,-1501.4 95.85,39.7 1660.82,778.5 3301.75,939.8 430.59,160.5 903.95,290.4 1397.31,364.8 359.69,58.4 683.36,87.8 972.97,96.3 -510.55,179.3 -1159.93,313.7 -1948.32,295.9"
         style="fill:#164c25;fill-opacity:1;fill-rule:nonzero;stroke:none"
         id="path50" /><path
         d="m 9715.66,13995.3 c 11.53,8.1 22.93,16.1 34.22,24 -26.01,0.4 -50.78,0.6 -74.76,0.8 13.43,-8.3 27.42,-16.5 40.54,-24.8"
         style="fill:#164c25;fill-opacity:1;fill-rule:nonzero;stroke:none"
         id="path52" /><path
         d="m 3506.88,12584.3 c -3.17,-1.2 -4.93,-1.9 -4.81,-1.6 1.48,-1.6 3.09,-0.6 4.81,1.6"
         style="fill:#164c25;fill-opacity:1;fill-rule:nonzero;stroke:none"
         id="path54" /><path
         d="m 16528.2,18361.5 c 3,-0.1 5,0.7 4.8,2.9 0.4,0 -1.4,-1 -4.8,-2.9"
         style="fill:#164c25;fill-opacity:1;fill-rule:nonzero;stroke:none"
         id="path56" /><path
         d="m 14787.9,18664.4 c -1070.2,-81.9 -2608.4,-770.1 -3542.8,-2041.5 -256.8,-336.3 -449.2,-661.2 -591.7,-968.8 89.7,-205.1 143.6,-406.2 171.7,-595.7 118.9,42.2 246,81.8 380.8,117.4 203.2,417.3 488.1,865.6 885.9,1313.9 873.9,1023.9 2070.9,1618.6 2956.5,1812.2 683,165.3 1186,99.8 1387.5,70.8 -464.2,-19.7 -2489.7,-347.4 -3968.8,-2021 -343.2,-370.3 -615.4,-735.3 -833.1,-1082.5 148.1,25.8 303.4,46.2 465.6,59.9 404.5,340.2 830.9,632.6 1249.1,874.4 1351.1,1275.4 3076.9,2103 3179.6,2158 -58,1.5 -687.3,426.3 -1740.3,302.9"
         style="fill:#164c25;fill-opacity:1;fill-rule:nonzero;stroke:none"
         id="path58" /><path
         d="m 10379.5,10188.9 c 5.3,139.9 11.8,278 19.2,414.2 -54.2,-197.4 -120.5,-395.1 -200.8,-591.2 -220.4,-538.6 -524.89,-1012 -855.32,-1418.3 21.21,-81.1 43.83,-160.7 67.5,-239.2 14.84,-49.4 30.12,-98.1 45.78,-146.2 130.86,-401.6 288.12,-762.8 441.99,-1068.4 26.53,-52.7 52.85,-103.4 78.95,-152.7 295.8,-557.7 557.3,-894.4 557.3,-894.4 0,0 -240.5,1840.5 -154.6,4096.2"
         style="fill:#164c25;fill-opacity:1;fill-rule:nonzero;stroke:none"
         id="path60" /><path
         d="m 10785.4,14192.5 c -27,-106.4 -59.5,-198.7 -93.6,-277.4 24.7,8.8 55.9,19.9 93.6,32.3 36.3,202 59.6,313.8 59.8,314.1 l -0.2,0.1 c 0,0 -21.9,-24.4 -59.6,-69.1"
         style="fill:#164c25;fill-opacity:1;fill-rule:nonzero;stroke:none"
         id="path62" /><path
         d="m 10500.6,13589.2 c 41.2,-243.3 78.6,-532.2 98.1,-852.3 58.1,441.9 116.5,807.4 161.9,1069.9 -37.1,25.3 -67.8,46 -90.2,61.1 -63.1,-133.3 -127.6,-223.8 -169.8,-278.7"
         style="fill:#164c25;fill-opacity:1;fill-rule:nonzero;stroke:none"
         id="path64" /><path
         d="m 12074.1,11609.8 c -67.2,284.5 -151,554.9 -244,806 -127.4,344 -270.6,652.1 -407.8,913.9 -205.5,156.1 -383.3,283.7 -518.7,378.4 65,-710.5 153.6,-2033.1 96.2,-3542.7 -85.9,-2255.8 -465.7,-4072.7 -465.7,-4072.7 0,0 304.2,335 655,898.8 30.7,49.4 61.9,100.8 93.2,153.7 182.1,307.8 370.2,672.8 530.7,1081 18.6,47.2 37,94.7 54.7,143 160.1,435.6 284.6,916.6 336.8,1426.6 4.4,43.3 8.9,86.4 12.3,130.1 4.9,63.8 8.9,128 11.4,192.7 10.9,285 -3.2,564.1 -35.9,834.3 -27.4,225.9 -68.3,445.2 -118.2,656.9"
         style="fill:#164c25;fill-opacity:1;fill-rule:nonzero;stroke:none"
         id="path66" /><path
         d="m 11021.2,14011.1 c -55.8,84.4 -100.8,148 -131.5,190.4 -28,38.6 -44.4,59.8 -44.5,60 0,-0.4 13.2,-102.5 32.3,-286 42.8,12.1 90.8,24.3 143.7,35.6"
         style="fill:#164c25;fill-opacity:1;fill-rule:nonzero;stroke:none"
         id="path68" /><path
         d="m 9334.18,14017.8 c 12.93,-1.9 37.3,50.4 102.38,137.9 -503.71,264.4 -1199.14,495.9 -2076.21,497.4 -1192.77,28.2 -2291.8,-470.3 -2941.91,-1003.1 -511.84,-400.1 -765.04,-819.4 -864.53,-989.2 286.56,333.6 1697.11,1628.5 3676.68,1620.3 788.39,17.8 1437.77,-116.6 1948.32,-295.9 184.41,5.4 354.88,2.2 511.75,-7.7 8.36,6 16.76,11.9 25,17.8 -13.12,8.3 -27.11,16.5 -40.54,24.8 -212.93,1.5 -342.93,-4.4 -340.94,-2.3"
         style="fill:#55892e;fill-opacity:1;fill-rule:nonzero;stroke:none"
         id="path70" /><path
         d="m 15048.3,18301.9 c -885.6,-193.6 -2082.6,-788.3 -2956.5,-1812.2 -397.8,-448.3 -682.7,-896.6 -885.9,-1313.9 135.1,35.7 277.8,67.3 428,93.4 217.7,347.2 489.9,712.2 833.1,1082.5 1479.1,1673.6 3504.6,2001.3 3968.8,2021 -201.5,29 -704.5,94.5 -1387.5,-70.8"
         style="fill:#55892e;fill-opacity:1;fill-rule:nonzero;stroke:none"
         id="path72" /><path
         d="m 10760.6,13806.8 c -45.4,-262.5 -103.8,-628 -161.9,-1069.9 38.3,-629.6 7.4,-1378.9 -200,-2133.8 -7.4,-136.2 -13.9,-274.3 -19.2,-414.2 -85.9,-2255.7 154.6,-4096.2 154.6,-4096.2 0,0 379.8,1816.9 465.7,4072.7 57.4,1509.6 -31.2,2832.2 -96.2,3542.7 -55.1,38.5 -103,71.5 -143,98.7"
         style="fill:#55892e;fill-opacity:1;fill-rule:nonzero;stroke:none"
         id="path74" /><path
         d="m 10845.2,14261.5 v 0 c -0.2,-0.3 -23.5,-112.1 -59.8,-314.1 27.3,9 58.2,18.5 92.1,28.1 -19.1,183.5 -32.3,285.6 -32.3,286"
         style="fill:#55892e;fill-opacity:1;fill-rule:nonzero;stroke:none"
         id="path76" /><path
         d="m 16879.5,11279.1 c 0,-0.3 -1.6,0.8 -4.4,3 0.6,-2.7 1.9,-4.1 4.4,-3"
         style="fill:#388d39;fill-opacity:1;fill-rule:nonzero;stroke:none"
         id="path78" /><path
         d="m 9494.02,13833.1 c -163.32,-35.6 -247.89,-60.9 -239.45,-54.3 10.51,-6.1 120.98,60.5 364.02,146.8 -40.46,-29.4 -81.95,-60.2 -124.57,-92.5 z m 1395.68,368.4 c 710.9,79.1 1650.2,77.5 2691.4,-185.2 1355.9,-318.2 2348,-1028.8 2818.4,-1638.3 379.4,-464.2 458.8,-869.9 487.7,-1033.7 53.7,204.2 246.4,861.3 -84.7,1621.6 -343.6,918.9 -1473.6,1992.5 -3111.1,2274.3 1414.5,945.9 2824.3,1583.8 2914.5,1627.8 -6,-0.2 -16.8,5.4 -33.5,15.1 -302.6,-57.6 -1632.2,-445.1 -3206.2,-1589.7 -84,11.5 -166.9,21.1 -248.6,28.9 932.3,692.6 1855.3,1158.8 2471.2,1366.2 540.5,191.4 857.6,195.3 983.5,194.6 -101.7,58.8 -416.9,261.4 -1123.5,136.1 -527.5,-73.8 -1298.6,-352.1 -2100.2,-815.7 -418.2,-241.8 -844.6,-534.2 -1249.1,-874.4 -162.2,-13.7 -317.5,-34.1 -465.6,-59.9 -150.2,-26.1 -292.9,-57.7 -428,-93.4 -134.8,-35.6 -261.9,-75.2 -380.8,-117.4 -28.1,189.5 -82,390.6 -171.7,595.7 -132.6,303 -343.4,614.5 -665.27,909.5 -832.31,802.3 -2185.59,951.2 -3122.19,723.6 -830.47,-169.6 -1355,-614.9 -1488.24,-714.5 13.43,4.6 30.58,9.9 51.32,15.5 176.29,80.2 615.39,273.6 1213.68,324.6 776.64,83.3 1830.23,-81.9 2606.71,-694.4 797.19,-595.3 1092.59,-1350.3 1190.29,-1867.5 98.2,-531.4 -1.3,-824.9 14.9,-829.4 -0.6,-1.5 -1.2,-0.2 -1.9,2.6 -16.6,68.1 -65.7,1446.9 -1529.5,2475.5 -1312.85,986.6 -3086.79,700.7 -3494.18,588.6 -40.47,-18.3 -67.07,-30.7 -78.55,-34.1 -1.02,-0.5 -1.6,-0.5 -2.38,-0.8 94.96,-18.5 1808.9,-258.3 3031.36,-1059.3 234.3,-138.5 450.35,-280.8 647.89,-424.9 272.43,-198.8 509.03,-401.4 707.82,-603.3 -147.43,-123.1 -239.73,-231 -298.6,-310.1 -65.08,-87.5 -89.45,-139.8 -102.38,-137.9 -1.99,-2.1 128.01,3.8 340.94,2.3 23.98,-0.2 48.75,-0.4 74.76,-0.8 -11.29,-7.9 -22.69,-15.9 -34.22,-24 -8.24,-5.9 -16.64,-11.8 -25,-17.8 -156.87,9.9 -327.34,13.1 -511.75,7.7 -289.61,-8.5 -613.28,-37.9 -972.97,-96.3 -493.36,-74.4 -966.72,-204.3 -1397.31,-364.8 -779.02,-290.5 -1417.5,-681.3 -1777.18,-1026.1 -499.3,-444.4 -551.06,-814.6 -572,-929.6 73.79,94.5 263.17,328.7 708.44,605.2 562.62,362.2 1570.31,797.3 2744.1,1018.7 357.07,71 688.75,118.3 993.09,148.2 -64.03,-59 -128.56,-120.6 -193.2,-184.5 -272.54,-37.9 -564.07,-87.7 -874.85,-153.1 -1941.95,-384.3 -3143.05,-1231.2 -3377.62,-1434.7 -3.39,-18.9 -6.09,-30.7 -9.72,-35 93.51,43.4 1696.79,848.6 3398.12,1255.6 228.36,59.8 450.43,114.2 665.82,163.3 -191.25,-204.6 -379.84,-430.6 -555.78,-677.6 -193.47,-271.8 -371.52,-568.9 -520.39,-891.1 -29.37,-63.6 -57.62,-128.2 -84.65,-193.7 -1.56,-3.8 -3.2,-7.5 -4.76,-11.3 -109.18,-266.7 -192.35,-536.4 -254.57,-804.1 -1.8,-7.7 -3.52,-15.4 -5.24,-23.2 -415.47,-1820.6 136.49,-3538.8 136.49,-3538.8 0,0 405.93,1811.2 1261.01,3900.4 615.78,1504.5 1296.49,2742.8 1629.26,3318.1 32.2,-41.9 62.1,-82.5 89.9,-121.4 -175.5,-670.6 -552.17,-1984.2 -1144.7,-3431.8 C 8205.12,8388.4 7224.73,6812.3 7224.73,6812.3 c 0,0 319.33,167.5 759.96,494.5 22.73,16.9 45.82,34.2 69.14,51.9 299.65,227.4 648.01,524.7 987.73,889.5 37.78,40.5 75.43,81.9 112.93,124.1 63.36,71.4 126.17,145.2 188.09,221.3 330.43,406.3 634.92,879.7 855.32,1418.3 80.3,196.1 146.6,393.8 200.8,591.2 207.4,754.9 238.3,1504.2 200,2133.8 -19.5,320.1 -56.9,609 -98.1,852.3 42.2,54.9 106.7,145.4 169.8,278.7 22.4,-15.1 53.1,-35.8 90.2,-61.1 40,-27.2 87.9,-60.2 143,-98.7 135.4,-94.7 313.2,-222.3 518.7,-378.4 339.2,-257.5 753,-592.2 1175.3,-983.9 306.5,-284.2 616.9,-598.3 906.1,-934.4 64.1,-74.5 127.5,-149.9 189.2,-226.4 2,-2.7 4.2,-5.2 6.4,-7.8 249.8,-291.9 478.5,-578.3 685.4,-856.4 333.5,-448.6 610.1,-875.6 825.5,-1269.5 331.4,-590.8 517.7,-1102.2 537.3,-1147.6 -14.2,83.8 -5.9,1673.9 -1468.2,3575 -1307.9,1776.5 -3143,2340.3 -3566.6,2417.1 -42.6,-0.6 -70.6,-1.4 -82.5,0.6 -1.1,0.2 -2,0.5 -2.9,0.8 -1.3,0.2 -1.8,1 -2.4,1.9 -0.3,0.3 -1.3,0.5 -1.2,0.9 0,0.1 -0.1,0.1 -0.1,0.1 -4.2,5.2 8.5,6.6 35.6,3.8 14,-1.5 31.9,-4.2 53.5,-8.1 184.6,2.7 644,2.4 1261,-239.4 801.7,-294.1 1877.6,-1008.9 2650.1,-2092.7 794.4,-1074.7 1066.4,-2079.2 1145.1,-2715 78.6,-652.1 -35.9,-935.4 -19.6,-948.6 -15.6,27.1 276.3,143.9 406.8,742.7 123.3,573.4 85.3,1628.8 -758.6,2942.9 -359.6,580.7 -827.1,1069.3 -1320.5,1453 1562.8,-668 2719.4,-1694.2 2798.1,-1756.6 -1.6,7.5 3.2,28.4 12,62 -159.4,347.8 -1111.8,1780.5 -3342.2,2338.9 -385.2,104.9 -754.6,178.8 -1104.1,229.2 -75.8,22.4 -150.1,41.8 -221.9,57.4 -516.5,134 -923.8,100.1 -1197.7,41.5 -52.9,-11.3 -100.9,-23.5 -143.7,-35.6 -33.9,-9.6 -64.8,-19.1 -92.1,-28.1 -37.7,-12.4 -68.9,-23.5 -93.6,-32.3 34.1,78.7 66.6,171 93.6,277.4 37.7,44.7 59.6,69.1 59.6,69.1 l 0.2,-0.1 v 0 c 0.1,-0.2 16.5,-21.4 44.5,-60"
         style="fill:#388d39;fill-opacity:1;fill-rule:nonzero;stroke:none"
         id="path80" /><path
         d="m 5347.42,16553.4 c 0.39,0 0.2,0 0.67,-0.1 -1.72,-0.6 -2.07,0.3 -2.78,0.7 0.63,-0.2 0.78,-0.8 2.11,-0.6"
         style="fill:#388d39;fill-opacity:1;fill-rule:nonzero;stroke:none"
         id="path82" /><path
         d="m 5343.79,16554.4 c -0.04,-0.7 1.13,-0.1 1.52,-0.4 -0.43,0.2 -1.52,-0.1 -1.48,0.4 h -0.04"
         style="fill:#388d39;fill-opacity:1;fill-rule:nonzero;stroke:none"
         id="path84" /><path
         d="m 8711.88,13156 c 64.64,63.9 129.17,125.5 193.2,184.5 -304.34,-29.9 -636.02,-77.2 -993.09,-148.2 -1173.79,-221.4 -2181.48,-656.5 -2744.1,-1018.7 -445.27,-276.5 -634.65,-510.7 -708.44,-605.2 -0.04,-0.1 -0.11,-0.2 -0.19,-0.3 0.08,0.1 0.12,0.1 0.15,0.1 234.57,203.5 1435.67,1050.4 3377.62,1434.7 310.78,65.4 602.31,115.2 874.85,153.1"
         style="fill:#73c82c;fill-opacity:1;fill-rule:nonzero;stroke:none"
         id="path86" /><path
         d="m 16572.4,16883.1 c 0.1,0 0.1,0 0.2,0 -0.1,0 -0.2,0 -0.3,0 -125.9,0.7 -443,-3.2 -983.5,-194.6 -615.9,-207.4 -1538.9,-673.6 -2471.2,-1366.2 81.7,-7.8 164.6,-17.4 248.6,-28.9 1574,1144.6 2903.6,1532.1 3206.2,1589.7"
         style="fill:#73c82c;fill-opacity:1;fill-rule:nonzero;stroke:none"
         id="path88" /><path
         d="m 9618.59,13925.6 c -243.04,-86.3 -353.51,-152.9 -364.02,-146.8 -8.44,-6.6 76.13,18.7 239.45,54.3 42.62,32.3 84.11,63.1 124.57,92.5"
         style="fill:#73c82c;fill-opacity:1;fill-rule:nonzero;stroke:none"
         id="path90" /><path
         d="m 16887.2,11344.3 c -28.9,163.8 -108.3,569.5 -487.7,1033.7 -470.4,609.5 -1462.5,1320.1 -2818.4,1638.3 -1041.2,262.7 -1980.5,264.3 -2691.4,185.2 30.7,-42.4 75.7,-106 131.5,-190.4 273.9,58.6 681.2,92.5 1197.7,-41.5 71.8,-15.6 146.1,-35 221.9,-57.4 349.5,-50.4 718.9,-124.3 1104.1,-229.2 2230.4,-558.4 3182.8,-1991.1 3342.2,-2338.9 0.1,-0.1 0.1,-0.2 0.2,-0.3 -0.1,0.2 -0.1,0.3 -0.1,0.5"
         style="fill:#73c82c;fill-opacity:1;fill-rule:nonzero;stroke:none"
         id="path92" /><path
         d="M 8485.74,10712.7 C 7630.66,8623.5 7224.73,6812.3 7224.73,6812.3 c 0,0 980.39,1576.1 1835.47,3665.3 592.53,1447.6 969.2,2761.2 1144.7,3431.8 -27.8,38.9 -57.7,79.5 -89.9,121.4 -332.77,-575.3 -1013.48,-1813.6 -1629.26,-3318.1"
         style="fill:#73c82c;fill-opacity:1;fill-rule:nonzero;stroke:none"
         id="path94" /><path
         d="m 10439.7,14350.9 c -97.7,517.2 -393.1,1272.2 -1190.29,1867.5 -776.48,612.5 -1830.07,777.7 -2606.71,694.4 -598.29,-51 -1037.39,-244.4 -1213.68,-324.6 407.39,112.1 2181.33,398 3494.18,-588.6 1463.8,-1028.6 1512.9,-2407.4 1529.5,-2475.5 0.7,-2.8 1.3,-4.1 1.9,-2.6 -16.2,4.5 83.3,298 -14.9,829.4"
         style="fill:#73c82c;fill-opacity:1;fill-rule:nonzero;stroke:none"
         id="path96" /><path
         d="m 5343.79,16554.4 c 0,0 0.04,0 0.04,0 -0.08,-1.2 1.33,-1.3 3.59,-1 0.86,0.2 1.8,0.4 3.05,0.7 11.48,3.4 38.08,15.8 78.55,34.1 -20.74,-5.6 -37.89,-10.9 -51.32,-15.5 -25.98,-8.9 -38.13,-15.5 -33.91,-18.3"
         style="fill:#73c82c;fill-opacity:1;fill-rule:nonzero;stroke:none"
         id="path98" /><path
         d="m 15768.9,8848.7 c -78.7,635.8 -350.7,1640.3 -1145.1,2715 -772.5,1083.8 -1848.4,1798.6 -2650.1,2092.7 -617,241.8 -1076.4,242.1 -1261,239.4 423.6,-76.8 2258.7,-640.6 3566.6,-2417.1 1462.3,-1901.1 1454,-3491.2 1468.2,-3575 0.6,-3.3 1.1,-5 1.8,-3.6 -16.3,13.2 98.2,296.5 19.6,948.6"
         style="fill:#73c82c;fill-opacity:1;fill-rule:nonzero;stroke:none"
         id="path100" /><path
         d="m 10623.6,13900.1 c 0,0 0.1,0 0.1,-0.1 -0.3,-1.2 1.2,-2.1 3.6,-2.8 0.9,-0.3 1.8,-0.6 2.9,-0.8 11.9,-2 39.9,-1.2 82.5,-0.6 -21.6,3.9 -39.5,6.6 -53.5,8.1 -27.1,2.8 -39.8,1.4 -35.6,-3.8"
         style="fill:#73c82c;fill-opacity:1;fill-rule:nonzero;stroke:none"
         id="path102" /></g></g></svg>
